# This file uses centimeters as units for non-parametric coordinates.

mtllib house.mtl
g default
v 14.175482 1.939974 -2.409152
v 14.234450 1.939973 2.499615
v 14.175478 5.726142 -2.409152
v 16.552294 4.741422 -2.409152
v 18.685549 4.741422 -2.409151
v 14.234444 5.726142 2.499615
v 13.435047 5.092863 -2.693431
v 17.696131 8.115927 -2.693431
v 13.435047 5.092863 2.693431
v 21.118265 5.726142 -2.409151
v 17.657473 8.004969 -2.409152
v 22.018549 5.136157 -2.693431
v 17.686848 8.089277 2.693431
v 21.060591 5.726142 2.499615
v 21.118263 1.939973 -2.409151
v 21.060585 1.939974 2.499615
v 22.018549 5.136157 2.693431
v 17.719422 8.182781 2.499615
v 14.715649 3.458739 -2.409152
v 14.715649 4.458739 -2.409152
v 14.715649 4.458739 -2.506253
v 14.715649 3.458739 -2.506253
v 16.041065 3.458739 -2.409152
v 16.041065 3.458739 -2.506253
v 16.552296 1.939974 -2.409152
v 16.557320 4.741422 -2.558204
v 16.557322 1.939974 -2.558205
v 16.041065 4.458739 -2.506253
v 16.041065 4.458739 -2.409152
v 18.690575 4.741422 -2.511104
v 18.690573 1.939974 -2.511104
v 18.685547 1.939974 -2.409151
v 13.294461 5.567245 2.693431
v 13.294461 5.567245 -2.693431
v 17.694100 8.638074 -2.693431
v 19.190680 3.458739 -2.409151
v 19.190680 4.458739 -2.409151
v 19.190680 4.458739 -2.506252
v 19.190680 3.458739 -2.506252
v 20.516096 3.458739 -2.409151
v 20.516096 3.458739 -2.506252
v 20.516096 4.458739 -2.506252
v 20.516096 4.458739 -2.409151
v 17.694100 8.638074 2.693431
v 22.155071 5.613328 -2.693431
v 22.155071 5.613328 2.693431
v 14.798285 4.355961 -2.506253
v 14.798285 3.561517 -2.506253
v 15.958430 4.355961 -2.506253
v 15.958430 3.561517 -2.506253
v 19.273316 4.355961 -2.506252
v 19.273316 3.561517 -2.506252
v 20.433460 4.355961 -2.506252
v 20.433460 3.561517 -2.506252
v 14.798285 4.355961 -2.419820
v 14.798285 3.561517 -2.419820
v 15.958430 4.355961 -2.419820
v 15.958430 3.561517 -2.419820
v 19.273316 4.355961 -2.419819
v 19.273316 3.561517 -2.419819
v 20.433460 4.355961 -2.419819
v 20.433460 3.561517 -2.419819
vt 0.438747 0.763830
vt 0.442318 0.985092
vt 0.438747 0.763830
vt 0.438154 0.749306
vt 0.427665 0.492622
vt 0.442318 0.985092
vt 0.375000 0.750000
vt 0.625000 0.750000
vt 0.375000 1.000000
vt 0.427021 0.476867
vt 0.625000 0.764279
vt 0.625000 0.485721
vt 0.625000 0.500000
vt 0.375000 0.500000
vt 0.625000 1.000000
vt 0.430288 0.263919
vt 0.427021 0.476867
vt 0.430288 0.263919
vt 0.375000 0.250000
vt 0.625000 0.988085
vt 0.625000 0.250000
vt 0.625000 0.261915
vt 0.199566 0.000000
vt 0.199566 0.250000
vt 0.375000 0.250000
vt 0.375000 0.000000
vt 0.625000 0.832483
vt 0.375000 0.824566
vt 0.375000 1.000000
vt 0.625000 1.000000
vt 0.438154 0.749306
vt 0.438154 0.749306
vt 0.438154 0.749306
vt 0.625000 0.250000
vt 0.625000 0.000000
vt 0.375000 0.425434
vt 0.625000 0.417517
vt 0.792517 0.250000
vt 0.792517 0.000000
vt 0.427665 0.492622
vt 0.427665 0.492622
vt 0.427665 0.492622
vt 0.125000 0.000000
vt 0.375000 0.000000
vt 0.375000 0.250000
vt 0.125000 0.250000
vt 0.375000 0.500000
vt 0.625000 0.500000
vt 0.224607 0.000000
vt 0.224607 0.250000
vt 0.375000 0.250000
vt 0.375000 0.000000
vt 0.625000 0.855630
vt 0.375000 0.849607
vt 0.375000 1.000000
vt 0.625000 1.000000
vt 0.625000 0.250000
vt 0.625000 0.000000
vt 0.375000 0.400393
vt 0.625000 0.394370
vt 0.769370 0.250000
vt 0.769370 0.000000
vt 0.625000 0.250000
vt 0.625000 0.750000
vt 0.375000 0.750000
vt 0.625000 0.000000
vt 0.625000 1.000000
vt 0.375000 1.000000
vt 0.125000 0.000000
vt 0.375000 0.000000
vt 0.125000 0.250000
vt 0.625000 0.000000
vt 0.438612 0.760529
vt 0.438281 0.752430
vt 0.438281 0.752430
vt 0.438612 0.760529
vt 0.427531 0.489350
vt 0.427180 0.480767
vt 0.427180 0.480767
vt 0.427531 0.489350
vt 0.375000 0.000000
vt 0.375000 0.250000
vt 0.625000 0.250000
vt 0.625000 0.000000
vt 0.375000 0.000000
vt 0.375000 0.250000
vt 0.625000 0.250000
vt 0.625000 0.000000
vt 0.375000 0.000000
vt 0.375000 0.250000
vt 0.625000 0.250000
vt 0.625000 0.000000
vt 0.375000 0.000000
vt 0.375000 0.250000
vt 0.625000 0.250000
vt 0.625000 0.000000
vn -0.999928 -0.000001 0.012012
vn -0.999928 -0.000001 0.012012
vn -0.999928 -0.000001 0.012012
vn -0.999928 -0.000001 0.012012
vn 0.000000 -0.000000 -1.000000
vn 0.000000 -0.000000 -1.000000
vn 0.000000 -0.000000 -1.000000
vn 0.000000 -0.000000 -1.000000
vn 0.631513 -0.775365 0.000007
vn 0.615865 -0.787717 0.014573
vn 0.620390 -0.781059 -0.071154
vn 0.633916 -0.773326 -0.010861
vn 0.563937 -0.823595 0.060548
vn 0.563937 -0.823595 0.060547
vn 0.000000 -0.000000 -1.000000
vn -0.541505 -0.838321 -0.063168
vn -0.546014 -0.808151 -0.220819
vn -0.546014 -0.808151 -0.220819
vn -0.537174 -0.843373 -0.012940
vn 0.552408 -0.783755 -0.283856
vn 0.552408 -0.783755 -0.283856
vn 0.999931 -0.000002 0.011749
vn 0.999931 -0.000002 0.011749
vn 0.999931 -0.000002 0.011749
vn 0.999931 -0.000002 0.011749
vn -0.536960 -0.843597 -0.004244
vn -0.544805 -0.838402 -0.016432
vn -0.000000 -0.000000 1.000000
vn -0.000000 -0.000000 1.000000
vn -0.000000 -0.000000 1.000000
vn -0.574999 -0.815543 -0.065318
vn -0.574999 -0.815543 -0.065318
vn -1.000000 0.000000 0.000000
vn -1.000000 0.000000 0.000000
vn -1.000000 0.000000 0.000000
vn -1.000000 0.000000 0.000000
vn 0.000000 -1.000000 0.000000
vn 0.000000 -1.000000 0.000000
vn 0.000000 -1.000000 0.000000
vn 0.000000 -1.000000 0.000000
vn -0.999432 0.000000 -0.033700
vn -0.999432 0.000000 -0.033700
vn -0.999432 0.000000 -0.033700
vn -0.999432 0.000000 -0.033700
vn 0.000000 0.000000 -1.000000
vn 0.000000 0.000000 -1.000000
vn 0.000000 0.000000 -1.000000
vn 0.000000 0.000000 -1.000000
vn 0.000000 1.000000 0.000000
vn 0.000000 1.000000 0.000000
vn 0.000000 1.000000 0.000000
vn 0.000000 1.000000 0.000000
vn 1.000000 0.000000 0.000000
vn 1.000000 0.000000 0.000000
vn 1.000000 0.000000 0.000000
vn 1.000000 0.000000 0.000000
vn 0.022074 0.000000 -0.999756
vn 0.022074 0.000000 -0.999756
vn 0.022074 0.000000 -0.999756
vn 0.022074 0.000000 -0.999756
vn 0.998787 -0.000001 0.049236
vn 0.998787 -0.000001 0.049236
vn 0.998787 -0.000001 0.049236
vn 0.998787 -0.000001 0.049236
vn -0.958783 -0.284141 0.000000
vn -0.958783 -0.284141 0.000000
vn -0.958783 -0.284141 0.000000
vn -0.958783 -0.284141 0.000000
vn -0.000000 1.000000 0.000001
vn -0.000000 1.000000 0.000001
vn -0.000000 1.000000 0.000001
vn -0.000000 1.000000 0.000001
vn -0.000000 0.000000 -1.000000
vn -0.000000 0.000000 -1.000000
vn -0.000000 0.000000 -1.000000
vn -0.000000 0.000000 -1.000000
vn -1.000000 0.000000 0.000000
vn -1.000000 0.000000 0.000000
vn -1.000000 0.000000 0.000000
vn -1.000000 0.000000 0.000000
vn 0.000000 -1.000000 0.000000
vn 0.000000 -1.000000 0.000000
vn 0.000000 -1.000000 0.000000
vn 0.000000 -1.000000 0.000000
vn 0.000000 0.000000 -1.000000
vn 0.000000 0.000000 -1.000000
vn 0.000000 0.000000 -1.000000
vn 0.000000 0.000000 -1.000000
vn 0.000000 1.000000 0.000000
vn 0.000000 1.000000 0.000000
vn 0.000000 1.000000 0.000000
vn 0.000000 1.000000 0.000000
vn 1.000000 0.000000 0.000000
vn 1.000000 0.000000 0.000000
vn 1.000000 0.000000 0.000000
vn 1.000000 0.000000 0.000000
vn -0.572346 0.820012 0.000000
vn -0.572346 0.820012 0.000000
vn -0.572346 0.820012 0.000000
vn -0.572346 0.820012 0.000000
vn 0.000000 0.000000 1.000000
vn 0.000000 0.000000 1.000000
vn -0.000000 0.000000 -1.000000
vn -0.000000 0.000000 -1.000000
vn -0.000000 0.000000 -1.000000
vn -0.000000 0.000000 -1.000000
vn 0.000000 0.000000 1.000000
vn 0.000000 0.000000 1.000000
vn 0.000000 0.000000 1.000000
vn 0.000000 0.000000 1.000000
vn 0.561204 0.827678 0.000000
vn 0.561204 0.827678 0.000000
vn 0.561204 0.827678 0.000000
vn 0.561204 0.827678 0.000000
vn 0.961424 -0.275071 0.000000
vn 0.961424 -0.275071 0.000000
vn 0.961424 -0.275071 0.000000
vn 0.961424 -0.275071 0.000000
vn 0.000000 0.000000 1.000000
vn 0.000000 0.000000 1.000000
vn 0.000000 0.000000 1.000000
vn 0.000000 0.000000 1.000000
vn 0.000000 0.000000 -1.000000
vn 0.000000 0.000000 -1.000000
vn 0.000000 0.000000 -1.000000
vn -0.000000 0.000000 -1.000000
vn 0.000000 0.000000 -1.000000
vn 0.000000 0.000000 -1.000000
vn 0.000000 0.000000 -1.000000
vn 0.000000 0.000000 -1.000000
vn 0.000000 0.000000 -1.000000
vn 0.000000 0.000000 -1.000000
vn 0.000000 0.000000 -1.000000
vn 0.000000 0.000000 -1.000000
vn 0.000000 0.000000 -1.000000
vn 0.000000 0.000000 -1.000000
vn 0.000001 0.000000 -1.000000
vn 0.000001 0.000000 -1.000000
vn -0.000000 0.000000 -1.000000
vn -0.000001 0.000000 -1.000000
vn -0.000000 0.000000 -1.000000
vn -0.000001 0.000000 -1.000000
vn 0.000000 0.000000 -1.000000
vn 0.000000 0.000000 -1.000000
vn 0.000000 0.000000 -1.000000
vn 0.000000 0.000000 -1.000000
vn -0.000000 0.000000 -1.000000
vn -0.000000 0.000000 -1.000000
vn -0.000000 0.000000 -1.000000
vn -0.000000 0.000000 -1.000000
vn 1.000000 0.000000 0.000000
vn 1.000000 0.000000 0.000000
vn 1.000000 0.000000 0.000000
vn 1.000000 0.000000 0.000000
vn 0.000000 -1.000000 0.000000
vn 0.000000 -1.000000 0.000000
vn 0.000000 -1.000000 0.000000
vn 0.000000 -1.000000 0.000000
vn -1.000000 0.000000 0.000000
vn -1.000000 0.000000 0.000000
vn -1.000000 0.000000 0.000000
vn -1.000000 0.000000 0.000000
vn 0.000000 1.000000 0.000000
vn 0.000000 1.000000 0.000000
vn 0.000000 1.000000 0.000000
vn 0.000000 1.000000 0.000000
vn 1.000000 0.000000 0.000000
vn 1.000000 0.000000 0.000000
vn 1.000000 0.000000 0.000000
vn 1.000000 0.000000 0.000000
vn 0.000000 -1.000000 0.000000
vn 0.000000 -1.000000 0.000000
vn 0.000000 -1.000000 0.000000
vn 0.000000 -1.000000 0.000000
vn -1.000000 0.000000 0.000000
vn -1.000000 0.000000 0.000000
vn -1.000000 0.000000 0.000000
vn -1.000000 0.000000 0.000000
vn 0.000000 1.000000 0.000000
vn 0.000000 1.000000 0.000000
vn 0.000000 1.000000 0.000000
vn 0.000000 1.000000 0.000000
s off
g polySurface7
usemtl lambert5SG
f 3/3/1 1/1/2 2/2/3 6/6/4
s 1
f 5/5/5 4/4/6 3/3/7 10/10/8
s 2
usemtl lambert6SG
f 7/7/9 3/3/10 6/6/11 9/9/12
f 3/3/10 7/7/9 8/8/13 11/11/14
s 1
usemtl lambert5SG
f 3/3/7 11/12/15 10/10/8
s 3
usemtl lambert6SG
f 10/10/16 11/12/17 8/13/18 12/14/19
s 2
f 13/15/20 9/9/12 6/6/11 18/20/21
s off
usemtl lambert5SG
f 15/17/22 10/10/23 14/16/24 16/18/25
s 3
usemtl lambert6SG
f 10/10/16 12/14/19 17/19/26 14/16/27
s 4
usemtl lambert5SG
f 18/20/28 6/6/29 14/16/30
s 3
usemtl lambert6SG
f 13/21/31 18/22/32 14/16/27 17/19/26
s off
usemtl lambert9SG
f 19/23/33 20/24/34 21/25/35 22/26/36
f 23/27/37 19/28/38 22/29/39 24/30/40
usemtl lambert7SG
f 25/31/41 4/4/42 26/32/43 27/33/44
usemtl lambert8SG
f 56/89/45 55/90/46 57/91/47 58/92/48
usemtl lambert9SG
f 20/36/49 29/37/50 28/34/51 21/25/52
f 29/38/53 23/39/54 24/35/55 28/34/56
usemtl lambert7SG
f 26/32/57 30/40/58 31/41/59 27/33/60
f 5/5/61 32/42/62 31/41/63 30/40/64
usemtl lambert6SG
f 7/43/65 9/44/66 33/45/67 34/46/68
usemtl lambert7SG
f 4/4/69 5/5/70 30/40/71 26/32/72
usemtl lambert6SG
f 34/47/73 35/48/74 8/8/75 7/7/76
usemtl lambert9SG
f 36/49/77 37/50/78 38/51/79 39/52/80
f 40/53/81 36/54/82 39/55/83 41/56/84
usemtl lambert8SG
f 60/93/85 59/94/86 61/95/87 62/96/88
usemtl lambert9SG
f 37/59/89 43/60/90 42/57/91 38/51/92
f 43/61/93 40/62/94 41/58/95 42/57/96
usemtl lambert6SG
f 33/45/97 44/63/98 35/48/99 34/47/100
s 4
usemtl lambert5SG
f 2/2/101 16/18/102 14/16/30 6/6/29
s off
usemtl lambert6SG
f 12/14/103 8/13/104 35/64/105 45/65/106
f 9/44/107 13/66/108 44/63/109 33/45/110
f 45/65/111 35/64/112 44/67/113 46/68/114
f 45/69/115 46/70/116 17/19/117 12/71/118
f 46/70/119 44/72/120 13/21/121 17/19/122
s 1
usemtl lambert5SG
f 25/31/123 1/1/124 19/73/125 23/74/126
f 3/3/7 20/76/127 19/73/125 1/1/124
f 10/10/8 15/17/128 40/78/129 43/79/130
f 10/10/8 43/79/130 37/80/131 5/5/5
f 36/77/132 32/42/133 5/5/5 37/80/131
f 15/17/128 32/42/133 36/77/132 40/78/129
f 29/75/134 20/76/127 3/3/7 4/4/6
f 25/31/123 23/74/126 29/75/134 4/4/6
s 7
usemtl lambert9SG
f 22/26/135 21/25/136 47/82/137 48/81/138
f 21/25/136 28/34/139 49/83/140 47/82/137
f 28/34/139 24/35/141 50/84/142 49/83/140
f 24/35/141 22/26/135 48/81/138 50/84/142
s 8
f 39/52/143 38/51/144 51/86/145 52/85/146
f 38/51/144 42/57/147 53/87/148 51/86/145
f 42/57/147 41/58/149 54/88/150 53/87/148
f 41/58/149 39/52/143 52/85/146 54/88/150
s off
f 48/81/151 47/82/152 55/90/153 56/89/154
f 47/82/155 49/83/156 57/91/157 55/90/158
f 49/83/159 50/84/160 58/92/161 57/91/162
f 50/84/163 48/81/164 56/89/165 58/92/166
f 52/85/167 51/86/168 59/94/169 60/93/170
f 51/86/171 53/87/172 61/95/173 59/94/174
f 53/87/175 54/88/176 62/96/177 61/95/178
f 54/88/179 52/85/180 60/93/181 62/96/182
