# This file uses centimeters as units for non-parametric coordinates.

mtllib chair.mtl
g default
v -17.938187 1.163508 2.661087
v -17.101458 1.163508 2.661087
v -17.938187 1.163508 1.661087
v -17.101458 1.163508 1.661087
v -18.038026 1.163508 1.661087
v -18.038026 1.163508 2.661087
v -18.038026 1.248400 2.661087
v -18.038026 1.248400 1.661087
v -18.038026 2.305462 1.661087
v -18.038026 2.305462 2.661087
v -17.963652 1.222935 2.661087
v -17.938187 1.248400 2.635622
v -17.126923 1.248400 2.635622
v -17.101458 1.222935 2.661087
v -17.938187 1.248400 1.686552
v -17.963652 1.222935 1.661087
v -17.126923 1.248400 1.686552
v -17.101458 1.222935 1.661087
v -17.938187 2.279997 2.635622
v -17.963652 2.305462 2.661087
v -17.938187 2.279997 1.686552
v -17.963652 2.305462 1.661087
v -17.863873 1.163508 1.661087
v -17.863873 1.163508 2.661087
v -17.887078 1.222935 2.661087
v -17.866135 1.248400 2.635622
v -17.866135 1.248400 1.686552
v -17.887078 1.222935 1.661087
v -17.166243 1.163508 1.661087
v -17.166243 1.163508 2.661087
v -17.168216 1.222935 2.661087
v -17.189738 1.248400 2.635622
v -17.189738 1.248400 1.686552
v -17.168216 1.222935 1.661087
v -17.240533 1.163508 1.661087
v -17.240533 1.163508 2.661087
v -17.244206 1.222935 2.661087
v -17.262322 1.248400 2.635622
v -17.262322 1.248400 1.686552
v -17.244206 1.222935 1.661087
v -17.240533 1.163508 1.777239
v -17.863873 1.163508 1.777239
v -17.938187 1.163508 1.777239
v -18.038026 1.163508 1.777239
v -18.038026 1.248400 1.777239
v -18.038026 2.305462 1.777239
v -17.963652 2.305462 1.777239
v -17.938187 2.279997 1.796788
v -17.938187 1.248400 1.796788
v -17.866135 1.248400 1.796788
v -17.262322 1.248400 1.796788
v -17.189738 1.248400 1.796788
v -17.126923 1.248400 1.796788
v -17.101458 1.222935 1.777239
v -17.101458 1.163508 1.777239
v -17.166243 1.163508 1.777239
v -17.240533 1.163508 1.855339
v -17.863873 1.163508 1.855339
v -17.938187 1.163508 1.855339
v -18.038026 1.163508 1.855339
v -18.038026 1.248400 1.855339
v -18.038026 2.305462 1.855339
v -17.963652 2.305462 1.855339
v -17.938187 2.279997 1.870911
v -17.938187 1.248400 1.870911
v -17.866135 1.248400 1.870911
v -17.262322 1.248400 1.870911
v -17.189738 1.248400 1.870911
v -17.126923 1.248400 1.870911
v -17.101458 1.222935 1.855339
v -17.101458 1.163508 1.855339
v -17.166243 1.163508 1.855339
v -18.038026 1.163508 2.542575
v -18.038026 1.248400 2.542575
v -18.038026 2.305462 2.542575
v -17.963652 2.305462 2.542575
v -17.938187 2.279997 2.523145
v -17.938187 1.248400 2.523145
v -17.866135 1.248400 2.523145
v -17.262322 1.248400 2.523145
v -17.189738 1.248400 2.523145
v -17.126923 1.248400 2.523145
v -17.101458 1.222935 2.542575
v -17.101458 1.163508 2.542575
v -17.166243 1.163508 2.542575
v -17.240533 1.163508 2.542575
v -17.863873 1.163508 2.542575
v -17.938187 1.163508 2.542575
v -18.038026 1.163508 2.462741
v -18.038026 1.248400 2.462741
v -18.038026 2.305462 2.462741
v -17.963652 2.305462 2.462741
v -17.938187 2.279997 2.447378
v -17.938187 1.248400 2.447378
v -17.866135 1.248400 2.447378
v -17.262322 1.248400 2.447378
v -17.189738 1.248400 2.447378
v -17.126923 1.248400 2.447378
v -17.101458 1.222935 2.462741
v -17.101458 1.163508 2.462741
v -17.166243 1.163508 2.462741
v -17.240533 1.163508 2.462741
v -17.863873 1.163508 2.462741
v -17.938187 1.163508 2.462741
v -17.863873 0.333184 1.777239
v -17.938187 0.333184 1.777239
v -17.863873 0.333184 1.855339
v -17.938187 0.333184 1.855339
v -17.166243 0.333184 1.777239
v -17.240533 0.333184 1.777239
v -17.166243 0.333184 1.855339
v -17.240533 0.333184 1.855339
v -17.166243 0.333184 2.462741
v -17.240533 0.333184 2.462741
v -17.166243 0.333184 2.542575
v -17.240533 0.333184 2.542575
v -17.863873 0.333184 2.462741
v -17.938187 0.333184 2.462741
v -17.863873 0.333184 2.542575
v -17.938187 0.333184 2.542575
vt 0.625000 0.750000
vt 0.375000 1.000000
vt 0.625000 1.000000
vt 0.125000 0.000000
vt 0.375000 0.000000
vt 0.375000 0.256366
vt 0.131368 0.250000
vt 0.375000 0.500000
vt 0.368634 0.250000
vt 0.625000 -0.000000
vt 0.617391 0.256366
vt 0.617391 0.493634
vt 0.375000 0.493634
vt 0.375000 0.572777
vt 0.625000 0.574992
vt 0.375000 0.750000
vt 0.875000 0.000000
vt 0.875000 0.175008
vt 0.625000 0.175008
vt 0.375000 0.000000
vt 0.375000 0.175008
vt 0.125000 0.250000
vt 0.375000 0.250000
vt 0.125000 0.000000
vt 0.125000 0.250000
vt 0.368635 0.250000
vt 0.131366 0.250000
vt 0.125000 0.175008
vt 0.125000 0.250000
vt 0.375000 0.250000
vt 0.375000 0.250000
vt 0.397204 0.750000
vt 0.397204 -0.000000
vt 0.397204 1.000000
vt 0.397204 0.175008
vt 0.396528 0.256366
vt 0.396528 0.493634
vt 0.397204 0.506660
vt 0.397204 0.572974
vt 0.605643 0.750000
vt 0.605643 -0.000000
vt 0.605643 1.000000
vt 0.605643 0.175008
vt 0.598624 0.256366
vt 0.598624 0.493634
vt 0.605643 0.569186
vt 0.605643 0.574821
vt 0.588926 0.750000
vt 0.588926 -0.000000
vt 0.588926 1.000000
vt 0.588926 0.175008
vt 0.582416 0.256366
vt 0.582416 0.493634
vt 0.588926 0.564171
vt 0.588926 0.574673
vt 0.588926 0.779038
vt 0.397204 0.779038
vt 0.154038 0.000000
vt 0.375000 0.779038
vt 0.154038 0.000000
vt 0.154038 0.250000
vt 0.154038 0.250000
vt 0.154038 0.250000
vt 0.158925 0.250000
vt 0.375000 0.466075
vt 0.158927 0.250000
vt 0.396528 0.466075
vt 0.582416 0.466075
vt 0.598624 0.466075
vt 0.617391 0.466075
vt 0.625000 0.528533
vt 0.845962 0.175008
vt 0.625000 0.779038
vt 0.845962 -0.000000
vt 0.605643 0.779038
vt 0.588926 0.798563
vt 0.397204 0.798563
vt 0.173563 0.000000
vt 0.375000 0.798563
vt 0.173563 0.000000
vt 0.173563 0.250000
vt 0.173563 0.250000
vt 0.173563 0.250000
vt 0.177456 0.250000
vt 0.375000 0.447544
vt 0.177457 0.250000
vt 0.396528 0.447544
vt 0.582416 0.447544
vt 0.598624 0.447544
vt 0.617391 0.447544
vt 0.625000 0.497294
vt 0.826437 0.175008
vt 0.625000 0.798563
vt 0.826437 -0.000000
vt 0.605643 0.798563
vt 0.345372 0.000000
vt 0.345372 0.250000
vt 0.345372 0.250000
vt 0.345372 0.250000
vt 0.340515 0.250000
vt 0.375000 0.284485
vt 0.340516 0.250000
vt 0.396528 0.284485
vt 0.582416 0.284485
vt 0.598624 0.284485
vt 0.617391 0.284485
vt 0.625000 0.222411
vt 0.654628 0.175008
vt 0.625000 0.970372
vt 0.654628 -0.000000
vt 0.605643 0.970372
vt 0.588926 0.970372
vt 0.397204 0.970372
vt 0.345372 0.000000
vt 0.375000 0.970372
vt 0.325413 0.000000
vt 0.325413 0.250000
vt 0.325413 0.250000
vt 0.325413 0.250000
vt 0.321573 0.250000
vt 0.375000 0.303427
vt 0.321574 0.250000
vt 0.396528 0.303427
vt 0.582416 0.303427
vt 0.598624 0.303427
vt 0.617391 0.303427
vt 0.625000 0.254343
vt 0.674586 0.175008
vt 0.625000 0.950413
vt 0.674586 -0.000000
vt 0.605643 0.950413
vt 0.588926 0.950413
vt 0.397204 0.950413
vt 0.325413 0.000000
vt 0.375000 0.950413
vt 0.375000 0.779038
vt 0.397204 0.779038
vt 0.397204 0.798563
vt 0.375000 0.798563
vt 0.588926 0.779038
vt 0.605643 0.779038
vt 0.605643 0.798563
vt 0.588926 0.798563
vt 0.588926 0.950413
vt 0.605643 0.950413
vt 0.605643 0.970372
vt 0.588926 0.970372
vt 0.375000 0.950413
vt 0.397204 0.950413
vt 0.397204 0.970372
vt 0.375000 0.970372
vn 0.000000 -1.000000 0.000000
vn 0.000000 -1.000000 0.000000
vn 0.000000 -1.000000 0.000000
vn 0.000000 -1.000000 0.000000
vn -1.000000 0.000000 0.000000
vn -1.000000 0.000000 0.000000
vn -1.000000 0.000000 0.000000
vn -1.000000 0.000000 0.000000
vn 0.000000 -1.000000 0.000000
vn 0.000000 -1.000000 0.000000
vn -1.000000 0.000000 0.000000
vn -1.000000 0.000000 0.000000
vn 0.707107 0.000000 0.707107
vn 0.707107 0.000000 0.707107
vn 0.707107 0.000000 0.707107
vn 0.707107 0.000000 0.707107
vn 0.000000 0.707107 0.707107
vn 0.000000 0.707107 0.707107
vn 0.000000 0.707107 0.707107
vn 0.000000 0.707107 0.707107
vn 0.707107 0.707107 0.000000
vn 0.707107 0.707107 0.000000
vn 0.707107 0.707107 0.000000
vn 0.707107 0.707107 0.000000
vn 0.707107 0.000000 -0.707107
vn 0.707107 0.000000 -0.707107
vn 0.707107 0.000000 -0.707107
vn 0.707107 0.000000 -0.707107
vn 0.000000 0.707107 -0.707107
vn 0.000000 0.707107 -0.707107
vn 0.000000 0.707107 -0.707107
vn 0.000000 0.707107 -0.707107
vn 0.707108 0.707105 0.000000
vn 0.707108 0.707105 0.000000
vn 0.707108 0.707105 0.000000
vn 0.707108 0.707105 0.000000
vn 0.000000 0.000000 1.000000
vn 0.000000 0.000000 1.000000
vn 0.000000 0.000000 1.000000
vn 0.000000 0.000000 1.000000
vn 0.000000 1.000000 0.000000
vn 0.000000 1.000000 0.000000
vn 0.000000 1.000000 0.000000
vn 0.000000 1.000000 0.000000
vn 0.000000 0.000000 -1.000000
vn 0.000000 0.000000 -1.000000
vn 0.000000 0.000000 -1.000000
vn 0.000000 0.000000 -1.000000
vn 1.000000 0.000000 0.000000
vn 1.000000 0.000000 0.000000
vn 1.000000 0.000000 0.000000
vn 1.000000 0.000000 0.000000
vn 0.000000 0.000000 1.000000
vn 0.000000 0.000000 1.000000
vn 0.000000 1.000000 0.000000
vn 0.000000 1.000000 0.000000
vn 0.000000 1.000000 0.000000
vn 0.000000 1.000000 0.000000
vn 0.000000 0.000000 -1.000000
vn 0.000000 0.000000 -1.000000
vn 1.000000 0.000000 0.000000
vn 1.000000 0.000000 0.000000
vn 1.000000 0.000000 0.000000
vn 1.000000 0.000000 0.000000
vn 0.000000 0.000000 -1.000000
vn 0.000000 0.000000 -1.000000
vn 0.000000 0.000000 1.000000
vn 0.000000 0.000000 1.000000
vn 0.000000 -1.000000 0.000000
vn 0.000000 -1.000000 0.000000
vn 0.000000 0.000000 1.000000
vn 0.000000 0.000000 1.000000
vn 0.000000 0.707107 0.707107
vn 0.000000 0.707107 0.707107
vn 0.000000 1.000000 0.000000
vn 0.000000 1.000000 0.000000
vn 0.000000 0.707107 -0.707107
vn 0.000000 0.707107 -0.707107
vn 0.000000 0.000000 -1.000000
vn 0.000000 0.000000 -1.000000
vn 0.000000 -1.000000 0.000000
vn 0.000000 -1.000000 0.000000
vn 0.000000 -1.000000 0.000000
vn 0.000000 -1.000000 0.000000
vn 0.000000 0.000000 1.000000
vn 0.000000 0.000000 1.000000
vn 0.000000 0.000000 1.000000
vn 0.000000 0.000000 1.000000
vn 0.000000 0.707107 0.707107
vn 0.000000 0.707107 0.707107
vn 0.000000 0.707107 0.707107
vn 0.000000 0.707107 0.707107
vn 0.000000 1.000000 0.000000
vn 0.000000 1.000000 0.000000
vn 0.000000 1.000000 0.000000
vn 0.000000 1.000000 0.000000
vn 0.000000 0.707107 -0.707107
vn 0.000000 0.707107 -0.707107
vn 0.000000 0.707107 -0.707107
vn 0.000000 0.707107 -0.707107
vn 0.000000 0.000000 -1.000000
vn 0.000000 0.000000 -1.000000
vn 0.000000 0.000000 -1.000000
vn 0.000000 0.000000 -1.000000
vn 0.000000 -1.000000 0.000000
vn 0.000000 -1.000000 0.000000
vn 0.000000 -1.000000 0.000000
vn 0.000000 -1.000000 0.000000
vn 0.000000 -1.000000 0.000000
vn 0.000000 -1.000000 0.000000
vn 0.000000 -1.000000 0.000000
vn 0.000000 -1.000000 0.000000
vn -1.000000 0.000000 0.000000
vn -1.000000 0.000000 0.000000
vn -1.000000 0.000000 0.000000
vn 0.000000 1.000000 0.000000
vn 0.000000 1.000000 0.000000
vn 0.707108 0.707105 0.000000
vn 0.707108 0.707105 0.000000
vn 1.000000 0.000000 0.000000
vn 1.000000 0.000000 0.000000
vn 0.000000 1.000000 0.000000
vn 0.000000 1.000000 0.000000
vn 0.000000 1.000000 0.000000
vn 0.000000 1.000000 0.000000
vn 0.000000 1.000000 0.000000
vn 0.707107 0.707107 0.000000
vn 0.707107 0.707107 0.000000
vn 1.000000 0.000000 0.000000
vn 1.000000 0.000000 0.000000
vn 0.000000 -1.000000 0.000000
vn 0.000000 -1.000000 0.000000
vn 0.000000 -1.000000 0.000000
vn 0.000000 -1.000000 0.000000
vn 0.000000 -1.000000 0.000000
vn 0.000000 -1.000000 0.000000
vn 0.000000 -1.000000 0.000000
vn 0.000000 -1.000000 0.000000
vn 0.000000 -1.000000 0.000000
vn 0.000000 -1.000000 0.000000
vn -1.000000 0.000000 0.000000
vn -1.000000 0.000000 0.000000
vn -1.000000 0.000000 0.000000
vn 0.000000 1.000000 0.000000
vn 0.000000 1.000000 0.000000
vn 0.707108 0.707105 0.000000
vn 0.707108 0.707105 0.000000
vn 1.000000 0.000000 0.000000
vn 1.000000 0.000000 0.000000
vn 0.000000 1.000000 0.000000
vn 0.000000 1.000000 0.000000
vn 0.000000 1.000000 0.000000
vn 0.000000 1.000000 0.000000
vn 0.000000 1.000000 0.000000
vn 0.707107 0.707107 0.000000
vn 0.707107 0.707107 0.000000
vn 1.000000 0.000000 0.000000
vn 1.000000 0.000000 0.000000
vn 0.000000 -1.000000 0.000000
vn 0.000000 -1.000000 0.000000
vn -1.000000 0.000000 0.000000
vn -1.000000 0.000000 0.000000
vn -1.000000 0.000000 0.000000
vn -1.000000 0.000000 0.000000
vn -1.000000 0.000000 0.000000
vn -1.000000 0.000000 0.000000
vn 0.000000 1.000000 0.000000
vn 0.000000 1.000000 0.000000
vn 0.000000 1.000000 0.000000
vn 0.000000 1.000000 0.000000
vn 0.707108 0.707105 0.000000
vn 0.707108 0.707105 0.000000
vn 0.707108 0.707105 0.000000
vn 0.707108 0.707105 0.000000
vn 1.000000 0.000000 0.000000
vn 1.000000 0.000000 0.000000
vn 1.000000 0.000000 0.000000
vn 1.000000 0.000000 0.000000
vn 0.000000 1.000000 0.000000
vn 0.000000 1.000000 0.000000
vn 0.000000 1.000000 0.000000
vn 0.000000 1.000000 0.000000
vn 0.000000 1.000000 0.000000
vn 0.000000 1.000000 0.000000
vn 0.000000 1.000000 0.000000
vn 0.000000 1.000000 0.000000
vn 0.000000 1.000000 0.000000
vn 0.000000 1.000000 0.000000
vn 0.707107 0.707107 0.000000
vn 0.707107 0.707107 0.000000
vn 0.707107 0.707107 0.000000
vn 0.707107 0.707107 0.000000
vn 1.000000 0.000000 0.000000
vn 1.000000 0.000000 0.000000
vn 1.000000 0.000000 0.000000
vn 1.000000 0.000000 0.000000
vn 0.000000 -1.000000 0.000000
vn 0.000000 -1.000000 0.000000
vn 0.000000 -1.000000 0.000000
vn 0.000000 -1.000000 0.000000
vn 0.000000 -1.000000 0.000000
vn 0.000000 -1.000000 0.000000
vn 0.000000 -1.000000 0.000000
vn 0.000000 -1.000000 0.000000
vn 0.000000 -1.000000 0.000000
vn 0.000000 -1.000000 0.000000
vn 0.000000 -1.000000 0.000000
vn 0.000000 -1.000000 0.000000
vn 0.000000 -1.000000 0.000000
vn 0.000000 -1.000000 0.000000
vn 0.000000 -1.000000 0.000000
vn 0.000000 -1.000000 0.000000
vn 0.000000 -1.000000 0.000000
vn 0.000000 -1.000000 0.000000
vn 0.000000 -1.000000 0.000000
vn 0.000000 -1.000000 0.000000
vn 0.000000 0.000000 -1.000000
vn 0.000000 0.000000 -1.000000
vn 0.000000 0.000000 -1.000000
vn 0.000000 0.000000 -1.000000
vn 1.000000 0.000000 0.000000
vn 1.000000 0.000000 0.000000
vn 1.000000 0.000000 0.000000
vn 1.000000 0.000000 0.000000
vn 0.000000 0.000000 1.000000
vn 0.000000 0.000000 1.000000
vn 0.000000 0.000000 1.000000
vn 0.000000 0.000000 1.000000
vn -1.000000 0.000000 0.000000
vn -1.000000 0.000000 0.000000
vn -1.000000 0.000000 0.000000
vn -1.000000 0.000000 0.000000
vn 0.000000 0.000000 -1.000000
vn 0.000000 0.000000 -1.000000
vn 0.000000 0.000000 -1.000000
vn 0.000000 0.000000 -1.000000
vn 1.000000 0.000000 0.000000
vn 1.000000 0.000000 0.000000
vn 1.000000 0.000000 0.000000
vn 1.000000 0.000000 0.000000
vn 0.000000 0.000000 1.000000
vn 0.000000 0.000000 1.000000
vn 0.000000 0.000000 1.000000
vn 0.000000 0.000000 1.000000
vn -1.000000 0.000000 0.000000
vn -1.000000 0.000000 0.000000
vn -1.000000 0.000000 0.000000
vn -1.000000 0.000000 0.000000
vn 0.000000 0.000000 -1.000000
vn 0.000000 0.000000 -1.000000
vn 0.000000 0.000000 -1.000000
vn 0.000000 0.000000 -1.000000
vn 1.000000 0.000000 0.000000
vn 1.000000 0.000000 0.000000
vn 1.000000 0.000000 0.000000
vn 1.000000 0.000000 0.000000
vn 0.000000 0.000000 1.000000
vn 0.000000 0.000000 1.000000
vn 0.000000 0.000000 1.000000
vn 0.000000 0.000000 1.000000
vn -1.000000 0.000000 0.000000
vn -1.000000 0.000000 0.000000
vn -1.000000 0.000000 0.000000
vn -1.000000 0.000000 0.000000
vn 0.000000 0.000000 -1.000000
vn 0.000000 0.000000 -1.000000
vn 0.000000 0.000000 -1.000000
vn 0.000000 0.000000 -1.000000
vn 1.000000 0.000000 0.000000
vn 1.000000 0.000000 0.000000
vn 1.000000 0.000000 0.000000
vn 1.000000 0.000000 0.000000
vn 0.000000 0.000000 1.000000
vn 0.000000 0.000000 1.000000
vn 0.000000 0.000000 1.000000
vn 0.000000 0.000000 1.000000
vn -1.000000 0.000000 0.000000
vn -1.000000 0.000000 0.000000
vn -1.000000 0.000000 0.000000
vn -1.000000 0.000000 0.000000
s 1
g chair
usemtl initialShadingGroup
f 3/16/1 23/32/2 42/57/3 43/59/4
s 2
usemtl lambert18SG
f 5/24/5 44/60/6 45/61/7 8/25/8
s 1
usemtl initialShadingGroup
f 3/4/1 43/58/4 44/60/9 5/24/10
s 2
f 8/25/8 45/61/7 46/62/11 9/29/12
s off
f 11/21/13 12/26/14 19/9/15 20/31/16
s 3
f 12/6/17 11/21/18 25/35/19 26/36/20
s 4
f 53/70/21 54/71/22 18/15/23 17/12/24
s off
f 15/7/25 16/28/26 22/22/27 21/27/28
s 5
f 16/8/29 15/13/30 27/37/31 28/38/32
s 6
f 47/63/33 48/64/34 21/27/35 22/22/36
s 7
f 1/20/37 24/33/38 25/35/39 11/21/40
s 8
f 49/65/41 50/67/42 27/37/43 15/13/44
s 9
f 16/14/45 28/39/46 23/32/47 3/16/48
s 10
f 55/74/49 4/17/50 18/18/51 54/72/52
s 7
usemtl lambert16SG
f 1/20/37 11/21/40 7/30/53 6/5/54
s 11
usemtl initialShadingGroup
f 47/63/55 22/22/56 9/29/57 46/62/58
s 9
f 16/28/45 3/4/48 5/24/59 8/25/60
s 12
f 49/66/61 15/7/62 21/27/63 48/64/64
s 9
usemtl lambert16SG
f 16/28/45 8/25/60 9/29/65 22/22/66
s 7
f 7/30/53 11/21/40 20/31/67 10/23/68
s 1
usemtl initialShadingGroup
f 23/32/2 35/48/69 41/56/70 42/57/3
s 7
usemtl lambert16SG
f 25/35/39 24/33/38 36/49/71 37/51/72
s 3
usemtl initialShadingGroup
f 26/36/20 25/35/19 37/51/73 38/52/74
s 8
usemtl lambert16SG
f 27/37/43 50/67/42 51/68/75 39/53/76
s 5
usemtl initialShadingGroup
f 28/38/32 27/37/31 39/53/77 40/54/78
s 9
f 23/32/47 28/39/46 40/55/79 35/48/80
s 1
f 29/40/81 4/1/82 55/73/83 56/75/84
s 7
usemtl lambert16SG
f 31/43/85 30/41/86 2/10/87 14/19/88
s 3
usemtl initialShadingGroup
f 32/44/89 31/43/90 14/19/91 13/11/92
s 8
usemtl lambert16SG
f 33/45/93 52/69/94 53/70/95 17/12/96
s 5
f 34/46/97 33/45/98 17/12/99 18/15/100
s 9
usemtl initialShadingGroup
f 29/40/101 34/47/102 18/15/103 4/1/104
s 1
f 35/48/69 29/40/81 56/75/84 41/56/70
s 7
f 37/51/72 36/49/71 30/41/86 31/43/85
s 3
f 38/52/74 37/51/73 31/43/90 32/44/89
s 8
f 39/53/76 51/68/75 52/69/94 33/45/93
s 5
f 40/54/78 39/53/77 33/45/98 34/46/97
s 9
f 35/48/80 40/55/79 34/47/102 29/40/101
s 1
f 42/57/3 41/56/70 57/76/105 58/77/106
s off
usemtl lambert15SG
f 106/136/107 105/137/108 107/138/109 108/139/110
s 1
usemtl initialShadingGroup
f 44/60/9 43/58/4 59/78/111 60/80/112
s 2
usemtl lambert18SG
f 45/61/7 44/60/6 60/80/113 61/81/114
usemtl lambert16SG
f 46/62/11 45/61/7 61/81/114 62/82/115
s 11
usemtl initialShadingGroup
f 63/83/116 47/63/55 46/62/58 62/82/117
s 6
f 63/83/118 64/84/119 48/64/34 47/63/33
s 12
usemtl lambert16SG
f 65/86/120 49/66/61 48/64/64 64/84/121
s 8
usemtl initialShadingGroup
f 65/85/122 66/87/123 50/67/42 49/65/41
f 51/68/75 50/67/42 66/87/123 67/88/124
f 52/69/94 51/68/75 67/88/124 68/89/125
f 53/70/95 52/69/94 68/89/125 69/90/126
s 4
f 69/90/127 70/91/128 54/71/22 53/70/21
s 10
f 71/94/129 55/74/49 54/72/52 70/92/130
s 1
f 56/75/84 55/73/83 71/93/131 72/95/132
s off
usemtl lambert15SG
f 110/140/133 109/141/134 111/142/135 112/143/136
s 1
usemtl lambert18SG
f 58/77/106 57/76/105 102/132/137 103/133/138
f 59/79/111 58/77/106 103/133/138 104/135/139
usemtl initialShadingGroup
f 60/80/112 59/78/111 104/134/139 89/116/140
s 2
usemtl lambert16SG
f 61/81/114 60/80/113 89/116/141 90/117/142
usemtl lambert18SG
f 62/82/115 61/81/114 90/117/142 91/118/143
s 11
usemtl lambert16SG
f 92/119/144 63/83/116 62/82/117 91/118/145
s 6
usemtl initialShadingGroup
f 92/119/146 93/120/147 64/84/119 63/83/118
s 12
usemtl lambert18SG
f 94/122/148 65/86/120 64/84/121 93/120/149
s 8
f 94/121/150 95/123/151 66/87/123 65/85/122
usemtl lambert16SG
f 67/88/124 66/87/123 95/123/151 96/124/152
usemtl lambert18SG
f 68/89/125 67/88/124 96/124/152 97/125/153
usemtl lambert16SG
f 69/90/126 68/89/125 97/125/153 98/126/154
s 4
usemtl initialShadingGroup
f 98/126/155 99/127/156 70/91/128 69/90/127
s 10
usemtl lambert18SG
f 100/130/157 71/94/129 70/92/130 99/128/158
s 1
usemtl initialShadingGroup
f 72/95/132 71/93/131 100/129/159 101/131/160
usemtl lambert18SG
f 57/76/105 72/95/132 101/131/160 102/132/137
s 2
usemtl lambert16SG
f 74/97/161 73/96/162 6/5/163 7/30/164
usemtl initialShadingGroup
f 75/98/165 74/97/161 7/30/164 10/23/166
s 11
f 20/31/167 76/99/168 75/98/169 10/23/170
s 6
f 20/31/171 19/9/172 77/100/173 76/99/174
s 12
usemtl lambert16SG
f 12/26/175 78/102/176 77/100/177 19/9/178
s 8
f 12/6/179 26/36/180 79/103/181 78/101/182
usemtl initialShadingGroup
f 80/104/183 79/103/181 26/36/180 38/52/184
usemtl lambert16SG
f 81/105/185 80/104/183 38/52/184 32/44/186
f 82/106/187 81/105/185 32/44/186 13/11/188
s 4
usemtl initialShadingGroup
f 13/11/189 14/19/190 83/107/191 82/106/192
s 10
f 2/10/193 84/110/194 83/108/195 14/19/196
s 1
f 85/111/197 84/109/198 2/3/199 30/42/200
f 86/112/201 85/111/197 30/42/200 36/50/202
f 87/113/203 86/112/201 36/50/202 24/34/204
f 88/115/205 87/113/203 24/34/204 1/2/206
usemtl lambert18SG
f 73/96/207 88/114/205 1/20/206 6/5/208
s 2
usemtl initialShadingGroup
f 90/117/142 89/116/141 73/96/162 74/97/161
f 91/118/143 90/117/142 74/97/161 75/98/165
s 11
f 76/99/168 92/119/144 91/118/145 75/98/169
s 6
f 76/99/174 77/100/173 93/120/147 92/119/146
s 12
f 78/102/176 94/122/148 93/120/149 77/100/177
s 8
f 78/101/182 79/103/181 95/123/151 94/121/150
f 96/124/152 95/123/151 79/103/181 80/104/183
usemtl lambert16SG
f 97/125/153 96/124/152 80/104/183 81/105/185
usemtl initialShadingGroup
f 98/126/154 97/125/153 81/105/185 82/106/187
s 4
f 82/106/192 83/107/191 99/127/156 98/126/155
s 10
f 84/110/194 100/130/157 99/128/158 83/108/195
s 1
f 101/131/160 100/129/159 84/109/198 85/111/197
s off
usemtl lambert15SG
f 114/144/209 113/145/210 115/146/211 116/147/212
s 1
usemtl lambert18SG
f 103/133/138 102/132/137 86/112/201 87/113/203
s off
usemtl lambert15SG
f 118/148/213 117/149/214 119/150/215 120/151/216
s 1
usemtl initialShadingGroup
f 89/116/140 104/134/139 88/114/205 73/96/207
s off
usemtl lambert15SG
f 43/59/217 42/57/218 105/137/219 106/136/220
f 42/57/221 58/77/222 107/138/223 105/137/224
usemtl lambert18SG
f 58/77/225 59/79/226 108/139/227 107/138/228
usemtl lambert15SG
f 59/79/229 43/59/230 106/136/231 108/139/232
f 41/56/233 56/75/234 109/141/235 110/140/236
usemtl lambert18SG
f 56/75/237 72/95/238 111/142/239 109/141/240
f 72/95/241 57/76/242 112/143/243 111/142/244
usemtl lambert15SG
f 57/76/245 41/56/246 110/140/247 112/143/248
f 102/132/249 101/131/250 113/145/251 114/144/252
f 101/131/253 85/111/254 115/146/255 113/145/256
usemtl lambert18SG
f 85/111/257 86/112/258 116/147/259 115/146/260
usemtl lambert15SG
f 86/112/261 102/132/262 114/144/263 116/147/264
f 104/135/265 103/133/266 117/149/267 118/148/268
f 103/133/269 87/113/270 119/150/271 117/149/272
f 87/113/273 88/115/274 120/151/275 119/150/276
usemtl lambert18SG
f 88/115/277 104/135/278 118/148/279 120/151/280
