# This file uses centimeters as units for non-parametric coordinates.

mtllib tent.mtl
g default
v -17.756674 2.541566 13.087957
v -18.866091 0.571890 13.481333
v -18.719249 1.099858 13.303076
v -18.601734 1.619090 13.392317
v -18.845689 0.664260 13.601318
v -18.520413 1.264093 13.461956
v -18.259105 1.742500 13.333850
v -18.795130 0.606066 14.106816
v -18.404333 1.286007 13.750247
v -18.162708 1.757678 13.503670
v -19.040672 0.662560 13.011633
v -18.972069 0.809030 13.068547
v -18.708597 1.565696 12.889361
v -18.829229 0.532252 12.725218
v -18.693458 1.072331 12.897544
v -18.592027 1.597496 12.782194
v -18.813741 0.623976 12.592067
v -18.502429 1.246780 12.710974
v -18.251925 1.743902 12.824056
v -18.798367 0.563659 12.369849
v -18.426956 1.408913 12.434594
v -18.245002 1.757557 12.677226
v -18.790088 0.563639 11.902244
v -18.385667 1.293340 12.344581
v -18.082253 1.901208 12.721884
v -18.750244 0.622753 14.073411
v -16.762546 0.622753 14.073411
v -17.756395 2.480653 13.084036
v -17.756395 2.543277 13.084613
v -18.750244 0.622753 14.114345
v -16.762546 0.622753 14.114345
v -18.750244 0.622753 11.960448
v -16.762546 0.622753 11.960448
v -18.750244 0.622753 11.913916
v -16.762546 0.622753 11.913916
v -18.750244 0.584520 14.114345
v -18.750244 0.584520 14.073411
v -16.762546 0.584520 14.073411
v -16.762546 0.584520 14.114345
v -18.750244 0.584520 11.913916
v -16.762546 0.584520 11.913916
v -16.762546 0.584520 11.960448
v -18.750244 0.584520 11.960448
v -16.715398 0.622753 14.114345
v -16.715398 0.622753 14.073411
v -16.715398 0.584520 14.114345
v -16.715398 0.584520 14.073411
v -16.715398 0.622753 11.913916
v -16.715398 0.622753 11.960448
v -16.715398 0.584520 11.960448
v -16.715398 0.584520 11.913916
vt 1.000000 0.500000
vt 0.000000 0.250000
vt 0.250000 0.250000
vt 0.750000 0.250000
vt 0.000000 0.500000
vt 0.250000 0.500000
vt 0.750000 0.500000
vt 0.000000 0.750000
vt 0.250000 0.750000
vt 0.750000 0.750000
vt 0.000000 0.000000
vt 0.250000 0.000000
vt 0.250000 0.250000
vt 0.000000 0.250000
vt 0.750000 0.000000
vt 0.750000 0.250000
vt 1.000000 0.500000
vt 0.250000 0.500000
vt 0.000000 0.500000
vt 0.750000 0.500000
vt 0.250000 0.750000
vt 0.000000 0.750000
vt 0.750000 0.750000
vt 0.250000 1.000000
vt 0.000000 1.000000
vt 0.750000 1.000000
vt 0.500000 0.250000
vt 0.625000 0.000000
vt 0.375000 0.500000
vt 0.625000 0.750000
vt 0.500000 0.500000
vt 0.375000 0.750000
vt 0.375000 0.750000
vt 0.375000 1.000000
vt 0.625000 1.000000
vt 0.625000 0.750000
vt 0.125000 0.000000
vt 0.125000 0.250000
vt 0.500000 0.250000
vt 0.375000 0.500000
vt 0.625000 0.000000
vt 0.625000 0.750000
vt 0.375000 0.750000
vt 0.500000 0.500000
vt 0.375000 0.750000
vt 0.625000 0.750000
vt 0.625000 1.000000
vt 0.375000 1.000000
vt 0.125000 0.250000
vt 0.125000 0.000000
vt 0.625000 1.000000
vt 0.625000 0.750000
vt 0.625000 0.750000
vt 0.625000 1.000000
vt 0.625000 0.750000
vt 0.625000 1.000000
vt 0.625000 1.000000
vt 0.625000 0.750000
vn -0.857561 0.435902 0.273090
vn -0.833366 0.507155 0.219762
vn -0.791844 0.492798 0.360739
vn -0.850572 0.385810 0.357321
vn -0.628538 0.008584 0.777732
vn 0.085339 0.223123 0.971047
vn -0.454381 0.490360 0.743697
vn -0.392772 0.487020 0.780091
vn -0.821121 0.535729 0.196862
vn -0.810011 0.537520 0.234424
vn -0.761551 0.553202 0.337650
vn -0.679991 0.406236 -0.610397
vn -0.671273 0.335583 -0.660891
vn -0.758940 0.214091 -0.614960
vn -0.801343 0.412487 -0.433248
vn -0.601266 0.131944 -0.788080
vn -0.483052 0.363293 -0.796667
vn -0.444094 0.563488 -0.696607
vn -0.881428 0.398260 -0.253916
vn -0.897349 0.418786 -0.139221
vn -0.569963 0.518700 -0.637253
vn -0.831679 0.513074 -0.212285
vn -0.878220 0.459017 -0.134290
vn -0.755723 0.589824 -0.284586
vn -0.825292 0.510314 -0.241812
vn -0.859450 0.480004 -0.175902
vn -0.298318 0.592487 -0.748309
vn 0.000000 -0.470032 -0.882650
vn 0.000000 -0.470032 -0.882650
vn 0.000000 -0.470032 -0.882650
vn 0.000000 0.472536 0.881312
vn 0.000000 0.472536 0.881312
vn 0.000000 0.472536 0.881312
vn 0.000000 -1.000000 0.000000
vn 0.000000 -1.000000 0.000000
vn 0.000000 -1.000000 0.000000
vn 0.000000 -1.000000 0.000000
vn -0.884609 0.257644 -0.388697
vn -0.884609 0.257644 -0.388697
vn -0.884609 0.257644 -0.388697
vn -0.884609 0.257644 -0.388697
vn 0.000000 -0.517489 0.855690
vn 0.000000 -0.517489 0.855690
vn 0.000000 -0.517489 0.855690
vn 0.000000 0.520493 -0.853866
vn 0.000000 0.520493 -0.853866
vn 0.000000 0.520493 -0.853866
vn 0.000000 -1.000000 0.000000
vn 0.000000 -1.000000 0.000000
vn 0.000000 -1.000000 0.000000
vn 0.000000 -1.000000 0.000000
vn -0.899205 0.258856 0.352737
vn -0.899205 0.258856 0.352737
vn -0.899205 0.258856 0.352737
vn -0.899205 0.258856 0.352737
vn 1.000000 0.000000 0.000000
vn 1.000000 0.000000 0.000000
vn 1.000000 0.000000 0.000000
vn 1.000000 0.000000 0.000000
vn 0.000000 0.000000 1.000000
vn 0.000000 0.000000 1.000000
vn 0.000000 0.000000 1.000000
vn 0.000000 0.000000 1.000000
vn 0.000000 0.000000 -1.000000
vn 0.000000 0.000000 -1.000000
vn 0.000000 0.000000 -1.000000
vn 0.000000 0.000000 -1.000000
vn 1.000000 0.000000 0.000000
vn 1.000000 0.000000 0.000000
vn 1.000000 0.000000 0.000000
vn 1.000000 0.000000 0.000000
vn 0.000000 1.000000 0.000000
vn 0.000000 1.000000 0.000000
vn 0.000000 1.000000 0.000000
vn 0.000000 1.000000 0.000000
vn 1.000000 0.000000 0.000000
vn 1.000000 0.000000 0.000000
vn 1.000000 0.000000 0.000000
vn 1.000000 0.000000 0.000000
vn 0.000000 0.000000 1.000000
vn 0.000000 0.000000 1.000000
vn 0.000000 -1.000000 0.000000
vn 0.000000 -1.000000 0.000000
vn 0.000000 -1.000000 0.000000
vn 0.000000 -1.000000 0.000000
vn 0.000000 0.000000 -1.000000
vn 0.000000 0.000000 -1.000000
vn -0.881767 -0.471685 0.000000
vn -0.881767 -0.471685 0.000000
vn -0.881767 -0.471685 0.000000
vn 0.000000 0.520486 -0.853870
vn 0.000000 0.520486 -0.853870
vn 0.000000 0.520486 -0.853870
vn 0.879163 0.476521 0.000000
vn 0.879163 0.476521 0.000000
vn 0.879163 0.476521 0.000000
vn 0.000000 0.472535 0.881312
vn 0.000000 0.472535 0.881312
vn 0.000000 0.472535 0.881312
vn 0.879155 0.476535 0.000000
vn 0.879155 0.476535 0.000000
vn 0.879155 0.476535 0.000000
vn 0.879155 0.476535 0.000000
vn 0.879156 0.476535 0.000000
vn 0.879156 0.476535 0.000000
vn 0.000000 -1.000000 0.000000
vn 0.000000 -1.000000 0.000000
vn 0.000000 -1.000000 0.000000
vn 0.000000 -1.000000 0.000000
vn -1.000000 0.000000 0.000000
vn -1.000000 0.000000 0.000000
vn -1.000000 0.000000 0.000000
vn -1.000000 0.000000 0.000000
vn -1.000000 0.000000 0.000000
vn -1.000000 0.000000 0.000000
vn -1.000000 0.000000 0.000000
vn -1.000000 0.000000 0.000000
s 1
g tent
usemtl lambert3SG
f 2/2/1 5/5/2 6/6/3 3/3/4
f 6/6/3 4/4/5 3/3/4
f 4/4/6 7/7/7 1/1/8
f 5/5/2 8/8/9 9/9/10 6/6/3
f 9/9/10 10/10/11 7/7/7 6/6/3
f 7/7/7 10/10/11 1/1/8
f 6/6/3 7/7/7 4/4/6
s 3
f 11/11/12 12/12/13 15/13/14 14/14/15
f 15/13/14 12/12/13 13/15/16 16/16/17
f 13/15/16 1/17/18 16/16/17
f 14/14/15 15/13/14 18/18/19 17/19/20
f 18/18/19 15/13/14 16/16/17
f 16/16/17 1/17/18 19/20/21
f 17/19/20 18/18/19 21/21/22 20/22/23
f 21/21/22 18/18/19 19/20/21 22/23/24
f 19/20/21 1/17/18 22/23/24
f 20/22/23 21/21/22 24/24/25 23/25/26
f 25/26/27 24/24/25 21/21/22 22/23/24
f 22/23/24 1/17/18 25/26/27
f 18/18/19 16/16/17 19/20/21
s off
f 28/27/28 27/28/29 26/29/30
f 31/30/31 29/31/32 30/32/33
s 4
f 36/33/34 37/34/35 38/35/36 39/36/37
s off
f 26/29/38 30/37/39 29/38/40 28/27/41
f 28/39/42 32/40/43 33/41/44
f 35/42/45 34/43/46 29/44/47
s 4
f 40/45/48 41/46/49 42/47/50 43/48/51
s off
f 32/40/52 28/39/53 29/49/54 34/50/55
f 45/51/56 44/52/57 46/53/58 47/54/59
s 6
f 31/30/60 30/32/61 36/33/62 39/36/63
s 7
f 34/43/64 35/42/65 41/46/66 40/45/67
s off
f 48/55/68 49/56/69 50/57/70 51/58/71
f 26/29/72 27/28/73 33/41/74 32/40/75
f 45/51/76 47/54/77 50/57/78 49/56/79
s 6
f 31/30/60 39/36/63 46/53/80 44/52/81
s 4
f 39/36/37 38/35/36 47/54/82 46/53/83
f 42/47/50 41/46/49 51/58/84 50/57/85
s 7
f 41/46/66 35/42/65 48/55/86 51/58/87
s 4
f 38/35/36 42/47/50 50/57/85 47/54/82
s off
f 28/39/88 33/41/89 27/28/90
f 29/31/91 48/55/92 35/42/93
f 29/31/94 44/52/95 45/51/96
f 31/30/97 44/52/98 29/31/99
f 29/31/100 49/56/101 48/55/102
f 29/31/103 45/51/104 49/56/105
f 38/35/106 37/34/107 43/48/108 42/47/109
s 8
f 26/29/110 37/34/111 36/33/112 30/37/113
f 43/48/114 32/40/115 34/43/116 40/45/117
f 26/29/110 32/40/115 43/48/114 37/34/111
