# This file uses centimeters as units for non-parametric coordinates.

mtllib can.mtl
g default
v 0.500000 -0.054544 2.925442
v -0.500000 -0.054544 2.925441
v -1.000000 -0.054544 3.791467
v -0.500000 -0.054544 4.657492
v 0.500000 -0.054544 4.657493
v 1.000000 -0.054544 3.791467
v 0.500000 0.054544 2.925442
v -0.500000 0.054544 2.925441
v -1.000000 0.054544 3.791467
v -0.500000 0.054544 4.657492
v 0.500000 0.054544 4.657493
v 1.000000 0.054544 3.791467
v 0.000000 -0.054544 3.791467
v 0.466667 0.054544 2.983177
v -0.466667 0.054544 2.983176
v -0.933333 0.054544 3.791467
v -0.466667 0.054544 4.599757
v 0.466667 0.054544 4.599758
v 0.933333 0.054544 3.791467
v 0.466667 2.191203 2.983177
v -0.466667 2.191203 2.983176
v -0.933333 2.191203 3.791467
v -0.466667 2.191203 4.599757
v 0.466667 2.191203 4.599758
v 0.933333 2.191203 3.791467
v 0.521111 2.191203 2.888876
v -0.521111 2.191203 2.888876
v -1.042222 2.191203 3.791467
v -0.521111 2.191203 4.694058
v 0.521111 2.191203 4.694058
v 1.042222 2.191203 3.791467
v 0.521111 2.285784 2.888876
v -0.521111 2.285784 2.888876
v -1.042222 2.285784 3.791467
v -0.521111 2.285784 4.694058
v 0.521111 2.285784 4.694058
v 1.042222 2.285784 3.791467
v 0.471316 2.285784 2.975124
v -0.471316 2.285784 2.975123
v -0.942632 2.285784 3.791467
v -0.471316 2.285784 4.607810
v 0.471316 2.285784 4.607811
v 0.942632 2.285784 3.791467
v 0.471316 2.205300 2.975124
v -0.471316 2.205300 2.975123
v 0.000000 2.205301 3.791467
v -0.942632 2.205300 3.791467
v -0.471316 2.205300 4.607810
v 0.471316 2.205300 4.607811
v 0.942632 2.205300 3.791467
vt 0.383588 0.094081
vt 0.304763 0.210582
vt 0.290962 0.217289
vt 0.370879 0.085482
vt 0.366244 0.337097
vt 0.365152 0.352403
vt 0.506550 0.347110
vt 0.519258 0.355709
vt 0.585374 0.230609
vt 0.599175 0.223902
vt 0.523893 0.104094
vt 0.524985 0.088789
vt 0.445069 0.220596
vt 0.709934 0.357138
vt 0.975713 0.854895
vt 0.797031 0.214334
vt 0.815267 0.858451
vt 0.658162 0.860115
vt 0.500888 0.861339
vt 0.343564 0.862385
vt 0.027607 0.424153
vt 0.817036 0.424153
vt 0.185493 0.424153
vt 0.343379 0.424153
vt 0.501265 0.424153
vt 0.659150 0.424153
vt 0.976261 0.917910
vt 0.186577 0.924792
vt 0.815729 0.919137
vt 0.658294 0.921212
vt 0.500934 0.922452
vt 0.343600 0.923491
vt 0.985505 0.901313
vt 0.186671 0.908810
vt 0.815860 0.903488
vt 0.658547 0.905322
vt 0.501214 0.906547
vt 0.343868 0.907575
vt 0.985358 0.884295
vt 0.186264 0.892458
vt 0.815462 0.887132
vt 0.658222 0.888757
vt 0.500864 0.889981
vt 0.343554 0.891010
vt 0.976166 0.868997
vt 0.186287 0.878189
vt 0.815615 0.872550
vt 0.658426 0.874213
vt 0.501109 0.875440
vt 0.343788 0.876483
vt 0.877155 0.361164
vt 0.186096 0.864095
vt 0.964252 0.218359
vt 0.884128 0.071529
vt 0.716908 0.067503
vt 0.629811 0.210307
vt 0.659150 0.785598
vt 0.817036 0.785598
vt 0.501265 0.785598
vt 0.343379 0.785598
vt 0.185493 0.785598
vt 0.027607 0.785598
vt 0.520887 0.080354
vt 0.361525 0.084815
vt 0.604430 0.216135
vt 0.528612 0.356377
vt 0.369251 0.360837
vt 0.285707 0.225056
vt 0.024907 0.880478
vt 0.024785 0.866367
vt 0.016781 0.895711
vt 0.016981 0.912713
vt 0.974922 0.785598
vt 0.027101 0.929386
vt 0.287956 0.193549
vt 0.974922 0.424153
vt 0.537694 0.097387
vt 0.547048 0.098055
vt 0.598083 0.239208
vt 0.602182 0.247642
vt 0.505457 0.362416
vt 0.500202 0.370183
vt 0.352443 0.343804
vt 0.343089 0.343136
vt 0.292054 0.201983
vt 0.384680 0.078775
vt 0.389935 0.071009
vn 0.000000 0.000000 -1.000000
vn 0.000000 0.000000 -1.000000
vn 0.000000 0.000000 -1.000000
vn 0.000000 0.000000 -1.000000
vn -0.866025 0.000000 -0.500000
vn -0.866025 0.000000 -0.500000
vn -0.866025 0.000000 -0.500000
vn -0.866025 0.000000 -0.500000
vn -0.866026 0.000000 0.500000
vn -0.866026 0.000000 0.500000
vn -0.866026 0.000000 0.500000
vn -0.866026 0.000000 0.500000
vn -0.000000 0.000000 1.000000
vn -0.000000 0.000000 1.000000
vn -0.000000 0.000000 1.000000
vn -0.000000 0.000000 1.000000
vn 0.866026 0.000000 0.500000
vn 0.866026 0.000000 0.500000
vn 0.866026 0.000000 0.500000
vn 0.866026 0.000000 0.500000
vn 0.866026 0.000000 -0.500000
vn 0.866026 0.000000 -0.500000
vn 0.866026 0.000000 -0.500000
vn 0.866026 0.000000 -0.500000
vn 0.000000 -1.000000 0.000000
vn 0.000000 -1.000000 0.000000
vn 0.000000 -1.000000 0.000000
vn 0.000000 -1.000000 0.000000
vn 0.000000 -1.000000 -0.000000
vn 0.000000 -1.000000 -0.000000
vn 0.000000 -1.000000 0.000000
vn 0.000000 1.000000 -0.000000
vn -0.000000 1.000000 -0.000001
vn -0.000000 1.000000 0.000000
vn -0.000001 1.000000 0.000000
vn -0.000000 1.000000 0.000001
vn 0.000000 1.000000 0.000001
vn 0.000001 1.000000 0.000000
vn 0.000000 1.000000 0.000000
vn 0.000000 1.000000 0.000000
vn 0.000000 1.000000 0.000000
vn 0.000000 1.000000 0.000000
vn 0.000000 1.000000 0.000000
vn 0.000000 1.000000 -0.000000
vn 0.000000 1.000000 -0.000000
vn 0.000000 1.000000 -0.000000
vn 0.000000 1.000000 -0.000000
vn 0.000000 1.000000 -0.000000
vn 0.000000 1.000000 0.000000
vn 0.000000 1.000000 0.000000
vn 0.000000 0.000000 -1.000000
vn 0.000000 0.000000 -1.000000
vn 0.000000 0.000000 -1.000000
vn 0.000000 0.000000 -1.000000
vn -0.866025 0.000000 -0.500000
vn -0.866025 0.000000 -0.500000
vn -0.866025 0.000000 -0.500000
vn -0.866025 0.000000 -0.500000
vn -0.866026 0.000000 0.500000
vn -0.866026 0.000000 0.500000
vn -0.866026 0.000000 0.500000
vn -0.866026 0.000000 0.500000
vn -0.000001 0.000000 1.000000
vn -0.000001 0.000000 1.000000
vn -0.000001 0.000000 1.000000
vn -0.000001 0.000000 1.000000
vn 0.866025 0.000000 0.500000
vn 0.866025 0.000000 0.500000
vn 0.866025 0.000000 0.500000
vn 0.866025 0.000000 0.500000
vn 0.866026 0.000000 -0.500000
vn 0.866026 0.000000 -0.500000
vn 0.866026 0.000000 -0.500000
vn 0.866026 0.000000 -0.500000
vn 0.000000 -1.000000 -0.000000
vn 0.000000 -1.000000 -0.000000
vn 0.000000 -1.000000 -0.000000
vn 0.000000 -1.000000 -0.000000
vn 0.000000 -1.000000 -0.000000
vn 0.000000 -1.000000 -0.000000
vn 0.000000 -1.000000 -0.000000
vn 0.000000 -1.000000 -0.000000
vn 0.000000 -1.000000 0.000001
vn 0.000000 -1.000000 0.000001
vn 0.000000 -1.000000 0.000001
vn 0.000000 -1.000000 0.000001
vn 0.000000 0.000000 -1.000000
vn 0.000000 0.000000 -1.000000
vn 0.000000 0.000000 -1.000000
vn 0.000000 0.000000 -1.000000
vn -0.866025 0.000000 -0.500000
vn -0.866025 0.000000 -0.500000
vn -0.866025 0.000000 -0.500000
vn -0.866025 0.000000 -0.500000
vn -0.866025 0.000000 0.500000
vn -0.866025 0.000000 0.500000
vn -0.866025 0.000000 0.500000
vn -0.866025 0.000000 0.500000
vn -0.000000 0.000000 1.000000
vn -0.000000 0.000000 1.000000
vn -0.000000 0.000000 1.000000
vn -0.000000 0.000000 1.000000
vn 0.866025 0.000000 0.500000
vn 0.866025 0.000000 0.500000
vn 0.866025 0.000000 0.500000
vn 0.866025 0.000000 0.500000
vn 0.866026 0.000000 -0.500000
vn 0.866026 0.000000 -0.500000
vn 0.866026 0.000000 -0.500000
vn 0.866026 0.000000 -0.500000
vn 0.000000 1.000000 -0.000001
vn 0.000000 1.000000 -0.000000
vn 0.000000 1.000000 -0.000000
vn 0.000000 1.000000 -0.000001
vn 0.000000 1.000000 0.000001
vn 0.000000 1.000000 0.000001
vn 0.000000 1.000000 0.000001
vn 0.000000 1.000000 0.000001
vn 0.000000 1.000000 -0.000000
vn 0.000000 1.000000 0.000000
vn 0.000000 1.000000 -0.000001
vn 0.000000 1.000000 -0.000001
vn -0.000001 0.000000 1.000000
vn -0.000001 0.000000 1.000000
vn -0.000001 0.000000 1.000000
vn -0.000001 0.000000 1.000000
vn 0.866026 0.000000 0.500000
vn 0.866026 0.000000 0.500000
vn 0.866026 0.000000 0.500000
vn 0.866026 0.000000 0.500000
vn 0.866025 0.000000 -0.500001
vn 0.866025 0.000000 -0.500001
vn 0.866025 0.000000 -0.500001
vn 0.866025 0.000000 -0.500001
vn 0.000000 0.000000 -1.000000
vn 0.000000 0.000000 -1.000000
vn 0.000000 0.000000 -1.000000
vn 0.000000 0.000000 -1.000000
vn -0.866025 0.000000 -0.500000
vn -0.866025 0.000000 -0.500000
vn -0.866025 0.000000 -0.500000
vn -0.866025 0.000000 -0.500000
vn -0.866026 0.000000 0.500000
vn -0.866026 0.000000 0.500000
vn -0.866026 0.000000 0.500000
vn -0.866026 0.000000 0.500000
s off
g can
usemtl lambert3SG
f 1/1/1 2/2/2 8/85/3 7/4/4
f 2/2/5 3/5/6 9/83/7 8/3/8
f 3/5/9 4/7/10 10/81/11 9/6/12
f 4/7/13 5/9/14 11/79/15 10/8/16
f 5/9/17 6/11/18 12/77/19 11/10/20
f 6/11/21 1/1/22 7/86/23 12/12/24
s 1
f 2/2/25 1/1/26 13/13/27
f 3/5/28 2/2/25 13/13/27
f 4/7/29 3/5/28 13/13/27
f 5/9/30 4/7/29 13/13/27
f 6/11/31 5/9/30 13/13/27
f 1/1/26 6/11/31 13/13/27
s 2
f 44/14/32 45/56/33 46/16/34
f 45/56/33 47/55/35 46/16/34
f 47/55/35 48/54/36 46/16/34
f 48/54/36 49/53/37 46/16/34
f 49/53/37 50/51/38 46/16/34
f 50/51/38 44/14/32 46/16/34
s 3
f 7/4/39 8/85/40 15/75/41 14/64/42
f 8/3/40 9/83/43 16/84/44 15/68/41
f 9/6/43 10/81/45 17/82/46 16/67/44
f 10/8/45 11/79/47 18/80/48 17/66/46
f 11/10/47 12/77/49 19/78/50 18/65/48
f 12/12/49 7/86/39 14/87/42 19/63/50
s off
f 14/22/51 15/76/52 21/73/53 20/58/54
f 15/21/55 16/23/56 22/61/57 21/62/58
f 16/23/59 17/24/60 23/60/61 22/61/62
f 17/24/63 18/25/64 24/59/65 23/60/66
f 18/25/67 19/26/68 25/57/69 24/59/70
f 19/26/71 14/22/72 20/58/73 25/57/74
s 4
f 20/28/75 21/74/76 27/72/77 26/34/78
f 21/27/76 22/29/79 28/35/80 27/33/77
f 22/29/79 23/30/81 29/36/82 28/35/80
f 23/30/81 24/31/83 30/37/84 29/36/82
f 24/31/83 25/32/85 31/38/86 30/37/84
f 25/32/85 20/28/75 26/34/78 31/38/86
s off
f 26/34/87 27/72/88 33/71/89 32/40/90
f 27/33/91 28/35/92 34/41/93 33/39/94
f 28/35/95 29/36/96 35/42/97 34/41/98
f 29/36/99 30/37/100 36/43/101 35/42/102
f 30/37/103 31/38/104 37/44/105 36/43/106
f 31/38/107 26/34/108 32/40/109 37/44/110
s 5
f 32/40/111 33/71/112 39/69/113 38/46/114
f 33/39/112 34/41/115 40/47/116 39/45/113
f 34/41/115 35/42/117 41/48/118 40/47/116
f 35/42/117 36/43/119 42/49/120 41/48/118
f 36/43/119 37/44/121 43/50/122 42/49/120
f 37/44/121 32/40/111 38/46/114 43/50/122
s off
f 38/46/123 39/69/124 45/70/125 44/52/126
f 39/45/127 40/47/128 47/17/129 45/15/130
f 40/47/131 41/48/132 48/18/133 47/17/134
f 41/48/135 42/49/136 49/19/137 48/18/138
f 42/49/139 43/50/140 50/20/141 49/19/142
f 43/50/143 38/46/144 44/52/145 50/20/146
