# This file uses centimeters as units for non-parametric coordinates.

mtllib plate.mtl
g default
v -0.866025 0.000000 0.500000
v 0.866025 0.000000 0.500000
v -0.000000 0.000000 -1.000000
v 0.000000 0.000000 1.000000
v 0.866025 0.000000 -0.500000
v -0.866026 0.000000 -0.500000
v -0.000000 -0.163232 0.000000
v -1.000000 0.000000 0.000000
v -0.500000 0.000000 0.866025
v 0.000000 -0.163232 0.689320
v -0.596969 -0.163232 -0.344660
v -0.596969 -0.163232 0.344660
v 0.500000 0.000000 0.866025
v 1.000000 0.000000 -0.000000
v 0.596969 -0.163232 -0.344660
v 0.596969 -0.163232 0.344660
v 0.500000 0.000000 -0.866026
v -0.500000 0.000000 -0.866025
v -0.000000 -0.163232 -0.689320
v -1.028039 0.131873 -0.593538
v -1.187077 0.131873 0.000000
v -1.028039 0.131873 0.593539
v -0.593539 0.131873 1.028039
v 0.000000 0.131873 1.187077
v 0.593539 0.131873 1.028039
v 1.028039 0.131873 0.593538
v 1.187077 0.131873 -0.000000
v 1.028039 0.131873 -0.593539
v 0.593538 0.131873 -1.028039
v -0.000000 0.131873 -1.187077
v -0.593539 0.131873 -1.028039
v -1.161975 0.165390 -0.670866
v -1.341733 0.165390 0.000000
v -1.161975 0.165390 0.670866
v -0.670866 0.165390 1.161975
v 0.000000 0.165390 1.341733
v 0.670866 0.165390 1.161975
v 1.161975 0.165390 0.670866
v 1.341733 0.165390 -0.000000
v 1.161975 0.165390 -0.670867
v 0.670866 0.165390 -1.161975
v -0.000000 0.165390 -1.341733
v -0.670867 0.165390 -1.161975
v -0.853561 0.025199 -0.492803
v -0.985276 0.025005 -0.000295
v -0.852707 0.024610 0.492311
v -0.492382 0.025005 0.853421
v 0.000000 0.025199 0.985607
v 0.492382 0.025005 0.853421
v 0.852707 0.024610 0.492311
v 0.985276 0.025005 -0.000295
v 0.853561 0.025199 -0.492804
v 0.492893 0.025005 -0.853126
v -0.000000 0.024610 -0.984621
v -0.492894 0.025005 -0.853126
v -1.018651 0.158792 -0.588118
v -1.176237 0.158792 0.000000
v -1.018651 0.158792 0.588119
v -0.588119 0.158792 1.018651
v 0.000000 0.158792 1.176237
v 0.588119 0.158792 1.018651
v 1.018651 0.158792 0.588118
v 1.176237 0.158792 -0.000000
v 1.018651 0.158792 -0.588119
v 0.588118 0.158792 -1.018651
v -0.000000 0.158792 -1.176237
v -0.588119 0.158792 -1.018651
v -1.156661 0.193705 -0.667798
v -1.335597 0.193705 0.000000
v -1.156660 0.193705 0.667798
v -0.667798 0.193705 1.156660
v 0.000000 0.193705 1.335596
v 0.667798 0.193705 1.156660
v 1.156660 0.193705 0.667798
v 1.335596 0.193705 -0.000000
v 1.156660 0.193705 -0.667798
v 0.667798 0.193705 -1.156661
v -0.000000 0.193705 -1.335596
v -0.667798 0.193705 -1.156660
vt 0.000000 0.000000
vt 1.000000 0.000000
vt 1.000000 1.000000
vt 0.000000 1.000000
vt 0.000000 0.000000
vt 1.000000 0.000000
vt 1.000000 1.000000
vt 0.000000 1.000000
vt 0.000000 0.000000
vt 1.000000 0.000000
vt 1.000000 1.000000
vt 0.000000 1.000000
vt 0.000000 0.000000
vt 1.000000 0.000000
vt 1.000000 1.000000
vt 0.000000 1.000000
vt 0.000000 0.000000
vt 1.000000 0.000000
vt 1.000000 1.000000
vt 0.000000 1.000000
vt 0.000000 0.000000
vt 1.000000 0.000000
vt 1.000000 1.000000
vt 0.000000 1.000000
vt 0.000000 0.000000
vt 1.000000 0.000000
vt 1.000000 1.000000
vt 0.000000 1.000000
vt 0.000000 0.000000
vt 1.000000 0.000000
vt 1.000000 1.000000
vt 0.000000 1.000000
vt 0.000000 0.000000
vt 1.000000 0.000000
vt 1.000000 1.000000
vt 0.000000 1.000000
vt 0.000000 0.000000
vt 1.000000 0.000000
vt 1.000000 1.000000
vt 0.000000 1.000000
vt 0.000000 0.000000
vt 1.000000 0.000000
vt 1.000000 1.000000
vt 0.000000 1.000000
vt 0.000000 0.000000
vt 1.000000 0.000000
vt 1.000000 1.000000
vt 0.000000 1.000000
vt 0.000000 0.000000
vt 1.000000 0.000000
vt 1.000000 1.000000
vt 0.000000 1.000000
vt 0.000000 0.000000
vt 1.000000 0.000000
vt 1.000000 1.000000
vt 0.000000 1.000000
vt 0.000000 0.000000
vt 1.000000 0.000000
vt 1.000000 1.000000
vt 0.000000 1.000000
vt 0.000000 0.000000
vt 1.000000 0.000000
vt 1.000000 1.000000
vt 0.000000 1.000000
vt 0.000000 0.000000
vt 1.000000 0.000000
vt 1.000000 1.000000
vt 0.000000 1.000000
vt 0.000000 0.000000
vt 1.000000 0.000000
vt 1.000000 1.000000
vt 0.000000 1.000000
vt 0.000000 0.000000
vt 1.000000 0.000000
vt 1.000000 1.000000
vt 0.000000 1.000000
vt 0.000000 0.000000
vt 1.000000 0.000000
vt 1.000000 1.000000
vt 0.000000 1.000000
vt 0.000000 0.000000
vt 1.000000 0.000000
vt 1.000000 1.000000
vt 0.000000 1.000000
vt 0.000000 0.000000
vt 1.000000 0.000000
vt 1.000000 1.000000
vt 0.000000 1.000000
vt 0.000000 0.000000
vt 1.000000 0.000000
vt 1.000000 1.000000
vt 0.000000 1.000000
vt 0.000000 0.000000
vt 1.000000 0.000000
vt 1.000000 1.000000
vt 0.000000 1.000000
vt 0.283494 0.625000
vt 0.066987 0.750000
vt 0.000000 0.500000
vt 0.283494 0.375000
vt 0.066987 0.250000
vt 0.250000 0.066987
vt 0.500000 0.000000
vt 0.500000 0.250000
vt 0.500000 0.500000
vt 0.750000 0.066987
vt 0.716506 0.375000
vt 0.933013 0.250000
vt 1.000000 0.500000
vt 0.933013 0.750000
vt 0.716506 0.625000
vt 0.750000 0.933013
vt 0.500000 0.750000
vt 0.500000 1.000000
vt 0.250000 0.933013
vt 0.000000 0.000000
vt 1.000000 0.000000
vt 1.000000 1.000000
vt 0.000000 1.000000
vt 0.000000 0.000000
vt 1.000000 0.000000
vt 1.000000 1.000000
vt 0.000000 1.000000
vt 0.000000 0.000000
vt 1.000000 0.000000
vt 1.000000 1.000000
vt 0.000000 1.000000
vt 0.000000 0.000000
vt 1.000000 0.000000
vt 1.000000 1.000000
vt 0.000000 1.000000
vt 0.000000 0.000000
vt 1.000000 0.000000
vt 1.000000 1.000000
vt 0.000000 1.000000
vt 0.000000 0.000000
vt 1.000000 0.000000
vt 1.000000 1.000000
vt 0.000000 1.000000
vt 0.000000 0.000000
vt 1.000000 0.000000
vt 1.000000 1.000000
vt 0.000000 1.000000
vt 0.000000 0.000000
vt 1.000000 0.000000
vt 1.000000 1.000000
vt 0.000000 1.000000
vt 0.000000 0.000000
vt 1.000000 0.000000
vt 1.000000 1.000000
vt 0.000000 1.000000
vt 0.000000 0.000000
vt 1.000000 0.000000
vt 1.000000 1.000000
vt 0.000000 1.000000
vt 0.000000 0.000000
vt 1.000000 0.000000
vt 1.000000 1.000000
vt 0.000000 1.000000
vt 0.000000 0.000000
vt 1.000000 0.000000
vt 1.000000 1.000000
vt 0.000000 1.000000
vt 0.000000 0.000000
vt 1.000000 0.000000
vt 1.000000 1.000000
vt 0.000000 1.000000
vt 0.000000 0.000000
vt 1.000000 0.000000
vt 1.000000 1.000000
vt 0.000000 1.000000
vt 0.000000 0.000000
vt 1.000000 0.000000
vt 1.000000 1.000000
vt 0.000000 1.000000
vt 0.000000 0.000000
vt 1.000000 0.000000
vt 1.000000 1.000000
vt 0.000000 1.000000
vt 0.000000 0.000000
vt 1.000000 0.000000
vt 1.000000 1.000000
vt 0.000000 1.000000
vt 0.000000 0.000000
vt 1.000000 0.000000
vt 1.000000 1.000000
vt 0.000000 1.000000
vt 0.000000 0.000000
vt 1.000000 0.000000
vt 1.000000 1.000000
vt 0.000000 1.000000
vt 0.000000 0.000000
vt 1.000000 0.000000
vt 1.000000 1.000000
vt 0.000000 1.000000
vt 0.000000 0.000000
vt 1.000000 0.000000
vt 1.000000 1.000000
vt 0.000000 1.000000
vt 0.000000 0.000000
vt 1.000000 0.000000
vt 1.000000 1.000000
vt 0.000000 1.000000
vt 0.000000 0.000000
vt 1.000000 0.000000
vt 1.000000 1.000000
vt 0.000000 1.000000
vt 0.000000 0.000000
vt 1.000000 0.000000
vt 1.000000 1.000000
vt 0.000000 1.000000
vt 1.000000 1.000000
vt 0.000000 1.000000
vt 1.000000 1.000000
vt 0.000000 1.000000
vt 1.000000 1.000000
vt 0.000000 1.000000
vt 1.000000 1.000000
vt 0.000000 1.000000
vt 1.000000 1.000000
vt 0.000000 1.000000
vt 1.000000 1.000000
vt 0.000000 1.000000
vt 1.000000 1.000000
vt 0.000000 1.000000
vt 1.000000 1.000000
vt 0.000000 1.000000
vt 1.000000 1.000000
vt 0.000000 1.000000
vt 1.000000 1.000000
vt 0.000000 1.000000
vt 1.000000 1.000000
vt 0.000000 1.000000
vt 1.000000 1.000000
vt 0.000000 1.000000
vn 0.573772 0.819015 -0.000164
vn 0.497036 0.818906 0.286964
vn 0.340723 0.919353 0.196716
vn 0.393486 0.919331 -0.000160
vn 0.496771 0.819120 -0.286811
vn 0.340818 0.919307 -0.196771
vn 0.287027 0.819015 -0.496819
vn 0.196882 0.919330 -0.340689
vn -0.000000 0.818905 -0.573928
vn -0.000000 0.919353 -0.393433
vn -0.287028 0.819015 -0.496819
vn -0.196882 0.919330 -0.340689
vn -0.496771 0.819120 -0.286811
vn -0.340818 0.919306 -0.196771
vn -0.573772 0.819015 -0.000163
vn -0.393486 0.919330 -0.000160
vn -0.497037 0.818906 0.286964
vn -0.340723 0.919353 0.196717
vn -0.286744 0.819015 0.496983
vn -0.196604 0.919331 0.340849
vn 0.000000 0.819120 0.573622
vn 0.000000 0.919307 0.393542
vn 0.286744 0.819015 0.496983
vn 0.196604 0.919330 0.340849
vn 0.185337 0.976832 0.107005
vn 0.214009 0.976832 -0.000000
vn 0.185337 0.976832 -0.107004
vn 0.107004 0.976832 -0.185337
vn -0.000000 0.976832 -0.214009
vn -0.107004 0.976832 -0.185337
vn -0.185337 0.976832 -0.107005
vn -0.214009 0.976832 0.000000
vn -0.185337 0.976832 0.107004
vn -0.107004 0.976832 0.185337
vn 0.000000 0.976832 0.214009
vn 0.107005 0.976832 0.185337
vn -0.176952 -0.978903 -0.102163
vn -0.172207 -0.980030 0.099424
vn -0.409969 -0.912056 0.008941
vn -0.330847 -0.924150 -0.191014
vn -0.212727 -0.912056 0.350573
vn -0.402800 -0.885251 0.232557
vn 0.000000 -0.978903 0.204326
vn 0.000000 -0.924150 0.382029
vn 0.000000 -1.000000 -0.000000
vn 0.172207 -0.980031 0.099424
vn 0.212728 -0.912056 0.350573
vn 0.409969 -0.912056 0.008941
vn 0.402800 -0.885251 0.232557
vn 0.176952 -0.978903 -0.102163
vn 0.330847 -0.924150 -0.191015
vn -0.000000 -0.980031 -0.198847
vn 0.197241 -0.912056 -0.359514
vn -0.197242 -0.912056 -0.359514
vn -0.000000 -0.885251 -0.465113
vn -0.576154 -0.817341 0.000000
vn -0.395243 -0.918577 0.000000
vn -0.342290 -0.918577 -0.197621
vn -0.498964 -0.817341 -0.288077
vn -0.498965 -0.817341 0.288077
vn -0.342290 -0.918577 0.197621
vn -0.288077 -0.817341 0.498965
vn -0.197621 -0.918577 0.342290
vn 0.000000 -0.817341 0.576155
vn 0.000000 -0.918577 0.395243
vn 0.288077 -0.817341 0.498965
vn 0.197622 -0.918577 0.342290
vn 0.498965 -0.817341 0.288077
vn 0.342290 -0.918577 0.197621
vn 0.576155 -0.817341 -0.000000
vn 0.395243 -0.918577 -0.000000
vn 0.498965 -0.817341 -0.288077
vn 0.342290 -0.918577 -0.197622
vn 0.288077 -0.817341 -0.498965
vn 0.197621 -0.918577 -0.342290
vn -0.000000 -0.817341 -0.576155
vn -0.000000 -0.918577 -0.395243
vn -0.288077 -0.817341 -0.498965
vn -0.197621 -0.918577 -0.342290
vn -0.211800 -0.977313 0.000000
vn -0.183424 -0.977313 -0.105900
vn -0.183424 -0.977313 0.105900
vn -0.105900 -0.977313 0.183425
vn 0.000000 -0.977313 0.211800
vn 0.105900 -0.977313 0.183425
vn 0.183425 -0.977313 0.105900
vn 0.211800 -0.977313 -0.000000
vn 0.183424 -0.977313 -0.105900
vn 0.105900 -0.977313 -0.183424
vn -0.000000 -0.977313 -0.211800
vn -0.105900 -0.977313 -0.183424
vn -0.846378 0.211799 -0.488656
vn -0.977313 0.211800 0.000000
vn -0.977313 0.211800 0.000000
vn -0.846378 0.211799 -0.488657
vn -0.846378 0.211801 0.488656
vn -0.846378 0.211801 0.488657
vn -0.488656 0.211800 0.846378
vn -0.488657 0.211800 0.846378
vn 0.000000 0.211800 0.977313
vn 0.000000 0.211800 0.977313
vn 0.488656 0.211800 0.846378
vn 0.488657 0.211800 0.846378
vn 0.846378 0.211801 0.488656
vn 0.846378 0.211801 0.488657
vn 0.977313 0.211802 -0.000000
vn 0.977313 0.211802 -0.000000
vn 0.846378 0.211801 -0.488656
vn 0.846378 0.211801 -0.488657
vn 0.488656 0.211800 -0.846378
vn 0.488657 0.211800 -0.846378
vn -0.000000 0.211800 -0.977313
vn -0.000000 0.211800 -0.977313
vn -0.488656 0.211800 -0.846378
vn -0.488657 0.211800 -0.846378
s 1
g polySurface10
usemtl lambert4SG
f 45/1/1 44/2/2 56/3/3 57/4/4
usemtl lambert5SG
f 46/5/5 45/6/1 57/7/4 58/8/6
f 47/9/7 46/10/5 58/11/6 59/12/8
usemtl lambert4SG
f 48/13/9 47/14/7 59/15/8 60/16/10
usemtl lambert5SG
f 49/17/11 48/18/9 60/19/10 61/20/12
usemtl lambert4SG
f 50/21/13 49/22/11 61/23/12 62/24/14
f 51/25/15 50/26/13 62/27/14 63/28/16
usemtl lambert6SG
f 52/29/17 51/30/15 63/31/16 64/32/18
usemtl lambert4SG
f 53/33/19 52/34/17 64/35/18 65/36/20
usemtl lambert5SG
f 54/37/21 53/38/19 65/39/20 66/40/22
f 55/41/23 54/42/21 66/43/22 67/44/24
usemtl lambert4SG
f 44/45/2 55/46/23 67/47/24 56/48/3
usemtl lambert5SG
f 57/49/4 56/50/3 68/212/25 69/213/26
f 58/53/6 57/54/4 69/214/26 70/215/27
usemtl lambert4SG
f 59/57/8 58/58/6 70/216/27 71/217/28
usemtl lambert5SG
f 60/61/10 59/62/8 71/218/28 72/219/29
usemtl lambert6SG
f 61/65/12 60/66/10 72/220/29 73/221/30
usemtl lambert5SG
f 62/69/14 61/70/12 73/222/30 74/223/31
f 63/73/16 62/74/14 74/224/31 75/225/32
usemtl lambert4SG
f 64/77/18 63/78/16 75/226/32 76/227/33
usemtl lambert6SG
f 65/81/20 64/82/18 76/228/33 77/229/34
usemtl lambert5SG
f 66/85/22 65/86/20 77/230/34 78/231/35
usemtl lambert6SG
f 67/89/24 66/90/22 78/232/35 79/233/36
f 56/93/3 67/94/24 79/234/36 68/235/25
s 2
usemtl initialShadingGroup
f 11/97/37 12/100/38 8/99/39 6/98/40
f 8/99/39 12/100/38 9/102/41 1/101/42
f 9/102/41 12/100/38 10/104/43 4/103/44
f 10/104/43 12/100/38 11/97/37 7/105/45
usemtl lambert5SG
f 10/104/43 16/107/46 13/106/47 4/103/44
usemtl initialShadingGroup
f 13/106/47 16/107/46 14/109/48 2/108/49
f 14/109/48 16/107/46 15/111/50 5/110/51
usemtl lambert4SG
f 15/111/50 16/107/46 10/104/43 7/105/45
f 15/111/50 19/113/52 17/112/53 5/110/51
usemtl initialShadingGroup
f 17/112/53 19/113/52 18/115/54 3/114/55
f 18/115/54 19/113/52 11/97/37 6/98/40
usemtl lambert4SG
f 11/97/37 19/113/52 15/111/50 7/105/45
s 3
f 8/116/56 21/119/57 20/118/58 6/117/59
usemtl lambert5SG
f 1/120/60 22/123/61 21/122/57 8/121/56
f 9/124/62 23/127/63 22/126/61 1/125/60
usemtl lambert4SG
f 4/128/64 24/131/65 23/130/63 9/129/62
usemtl lambert5SG
f 13/132/66 25/135/67 24/134/65 4/133/64
usemtl lambert4SG
f 2/136/68 26/139/69 25/138/67 13/137/66
f 14/140/70 27/143/71 26/142/69 2/141/68
usemtl lambert6SG
f 5/144/72 28/147/73 27/146/71 14/145/70
usemtl lambert4SG
f 17/148/74 29/151/75 28/150/73 5/149/72
usemtl lambert5SG
f 3/152/76 30/155/77 29/154/75 17/153/74
f 18/156/78 31/159/79 30/158/77 3/157/76
usemtl lambert4SG
f 6/160/59 20/163/58 31/162/79 18/161/78
usemtl lambert5SG
f 21/164/57 33/167/80 32/166/81 20/165/58
f 22/168/61 34/171/82 33/170/80 21/169/57
usemtl lambert4SG
f 23/172/63 35/175/83 34/174/82 22/173/61
usemtl lambert5SG
f 24/176/65 36/179/84 35/178/83 23/177/63
usemtl lambert6SG
f 25/180/67 37/183/85 36/182/84 24/181/65
usemtl lambert5SG
f 26/184/69 38/187/86 37/186/85 25/185/67
f 27/188/71 39/191/87 38/190/86 26/189/69
usemtl lambert4SG
f 28/192/73 40/195/88 39/194/87 27/193/71
usemtl lambert6SG
f 29/196/75 41/199/89 40/198/88 28/197/73
usemtl lambert5SG
f 30/200/77 42/203/90 41/202/89 29/201/75
usemtl lambert6SG
f 31/204/79 43/207/91 42/206/90 30/205/77
f 20/208/58 32/211/81 43/210/91 31/209/79
s 4
usemtl lambert5SG
f 32/51/92 33/52/93 69/213/94 68/212/95
f 33/55/93 34/56/96 70/215/97 69/214/94
usemtl lambert4SG
f 34/59/96 35/60/98 71/217/99 70/216/97
usemtl lambert5SG
f 35/63/98 36/64/100 72/219/101 71/218/99
usemtl lambert6SG
f 36/67/100 37/68/102 73/221/103 72/220/101
usemtl lambert5SG
f 37/71/102 38/72/104 74/223/105 73/222/103
f 38/75/104 39/76/106 75/225/107 74/224/105
usemtl lambert4SG
f 39/79/106 40/80/108 76/227/109 75/226/107
usemtl lambert6SG
f 40/83/108 41/84/110 77/229/111 76/228/109
usemtl lambert5SG
f 41/87/110 42/88/112 78/231/113 77/230/111
usemtl lambert6SG
f 42/91/112 43/92/114 79/233/115 78/232/113
f 43/95/114 32/96/92 68/235/95 79/234/115
