# This file uses centimeters as units for non-parametric coordinates.

mtllib bow.mtl
g default
v 0.441334 3.879067 0.330966
v 0.438775 4.107781 0.404859
v 0.390486 4.113274 0.652480
v 0.363201 3.887956 0.731624
v 0.394626 3.743208 0.532917
v 0.523595 3.849971 0.250614
v 0.519976 4.173420 0.355116
v 0.451686 4.181188 0.705303
v 0.413099 3.862540 0.817230
v 0.457541 3.657837 0.536216
v 0.571945 3.835683 0.362789
v 0.588224 4.106553 0.404986
v 0.536756 4.107596 0.683735
v 0.505480 3.838166 0.718342
v 0.514040 3.778990 0.547784
v 0.308384 3.881566 0.326354
v 0.305825 4.110280 0.400248
v 0.257536 4.115773 0.647868
v 0.230251 3.890455 0.727012
v 0.261677 3.745708 0.528305
v 0.388425 3.852512 0.245925
v 0.384807 4.175961 0.350427
v 0.316516 4.183729 0.700615
v 0.277929 3.865081 0.812541
v 0.322371 3.660378 0.531528
v 0.156985 3.848692 0.347658
v 0.175000 4.104456 0.384605
v 0.122235 4.111107 0.648179
v 0.089298 3.857041 0.687751
v 0.132478 3.750268 0.513516
v 0.257696 3.854969 0.241391
v 0.254077 4.178418 0.345892
v 0.185786 4.186187 0.696080
v 0.147199 3.867539 0.808006
v 0.191641 3.662835 0.526993
v 3.739692 4.281797 0.599610
v 6.075375 4.523160 0.539089
v 7.966637 4.339776 0.497276
v 9.223446 4.172960 0.449773
v 10.119191 3.918067 0.347330
v 12.569015 3.367737 0.285441
v 3.752657 4.032390 0.461403
v 6.090483 4.377220 0.294248
v 7.967679 4.334631 0.211889
v 9.244041 4.310152 0.200320
v 10.185540 4.154127 0.201226
v 12.653819 3.570540 0.277545
v 3.735731 4.169823 0.211805
v 6.050671 4.618920 0.147724
v 7.981322 4.619694 0.206800
v 9.261745 4.559157 0.338726
v 10.224198 4.295026 0.446431
v 12.654661 3.573671 0.513012
v 3.722764 4.419230 0.350012
v 6.035564 4.764860 0.392564
v 7.980279 4.624838 0.492188
v 9.241153 4.421964 0.588181
v 10.157850 4.058965 0.592537
v 12.585857 3.411826 0.521528
v 12.892866 3.276874 0.307479
v 12.940122 3.451952 0.304982
v 12.940770 3.454363 0.486325
v 12.893516 3.279285 0.488821
v -0.360289 4.114072 0.511944
v -0.324037 4.109126 0.334910
v -0.348476 3.930010 0.334910
v -0.384729 3.934956 0.511944
v 12.316765 3.445686 0.205686
v 12.320173 3.466825 0.563119
v 12.377666 3.681798 0.513344
v 12.378666 3.681161 0.281935
v 12.455853 3.441904 0.183506
v 12.516905 3.657338 0.270897
v 12.512767 3.647577 0.523018
v 12.449157 3.426110 0.591448
v 12.413981 3.298997 0.381618
v 12.512880 3.399168 0.097933
v 12.599221 3.703838 0.221522
v 12.593369 3.690034 0.578076
v 12.503411 3.376832 0.674849
v 12.453667 3.197068 0.378105
v 12.581348 3.402996 0.183842
v 12.642402 3.618430 0.271232
v 12.638264 3.608669 0.523354
v 12.574654 3.387202 0.591783
v 12.539478 3.260089 0.381953
v 12.319799 3.377549 0.385934
v 12.387149 3.441213 0.097933
v 12.473490 3.745883 0.221522
v 12.467638 3.732079 0.578076
v 12.377680 3.418877 0.674849
v 12.327935 3.239112 0.378105
v 12.305037 3.456201 0.420212
v 12.299918 3.447974 0.357633
v 0.520799 3.827326 0.613272
v 0.557657 3.825889 0.475638
v 1.587291 3.742495 0.533070
v 2.194230 3.436953 0.495594
v 3.443076 3.368924 0.517572
v 4.516326 3.440260 0.508960
v 5.589577 3.403765 0.494247
v 6.662828 3.259441 0.473431
v 7.637778 3.366738 0.379683
v 8.711029 3.330243 0.364969
v 10.173299 3.279636 0.405690
v 11.246550 3.414044 0.400647
v 1.644213 3.793588 0.595721
v 2.243984 3.490801 0.555408
v 3.485662 3.425529 0.574549
v 4.551744 3.499620 0.563100
v 5.617826 3.465882 0.545549
v 6.683908 3.324313 0.521896
v 7.651690 3.434366 0.425310
v 8.717772 3.400627 0.407759
v 10.172873 3.352777 0.445643
v 11.238955 3.489940 0.437763
v 1.667854 3.791534 0.464910
v 2.264748 3.488130 0.431420
v 3.503550 3.422240 0.457384
v 4.566756 3.495714 0.452758
v 5.629963 3.461358 0.442030
v 6.693169 3.319172 0.425201
v 7.658074 3.428608 0.335438
v 8.721281 3.394252 0.324710
v 10.173506 3.345784 0.369417
v 11.236712 3.482329 0.368360
vt 0.000000 0.250000
vt 0.200000 0.250000
vt 0.400000 0.250000
vt 0.600000 0.250000
vt 0.800000 0.250000
vt 1.000000 0.250000
vt 0.000000 0.500000
vt 0.200000 0.500000
vt 0.400000 0.500000
vt 0.600000 0.500000
vt 0.800000 0.500000
vt 1.000000 0.500000
vt 0.000000 0.750000
vt 0.200000 0.750000
vt 0.400000 0.750000
vt 0.800000 0.375000
vt 0.800000 0.750000
vt 1.000000 0.875000
vt 0.000000 0.250000
vt 0.200000 0.250000
vt 0.200000 0.500000
vt 0.000000 0.500000
vt 0.400000 0.250000
vt 0.400000 0.500000
vt 0.600000 0.250000
vt 0.600000 0.500000
vt 0.800000 0.250000
vt 0.800000 0.500000
vt 1.000000 0.250000
vt 1.000000 0.500000
vt 0.200000 0.750000
vt 0.000000 0.750000
vt 0.400000 0.750000
vt 0.600000 0.750000
vt 0.800000 0.750000
vt 1.000000 0.750000
vt 0.000000 0.250000
vt 0.200000 0.250000
vt 0.200000 0.500000
vt 0.000000 0.500000
vt 0.400000 0.250000
vt 0.400000 0.500000
vt 0.600000 0.250000
vt 0.600000 0.500000
vt 0.800000 0.250000
vt 0.800000 0.500000
vt 1.000000 0.250000
vt 1.000000 0.500000
vt 0.200000 0.750000
vt 0.000000 0.750000
vt 0.400000 0.750000
vt 0.600000 0.750000
vt 0.800000 0.750000
vt 1.000000 0.750000
vt 0.000000 0.000000
vt 1.000000 0.000000
vt 1.000000 1.000000
vt 0.000000 1.000000
vt 0.000000 0.000000
vt 0.000000 1.000000
vt 1.000000 1.000000
vt 1.000000 0.000000
vt 0.000000 0.000000
vt 1.000000 0.000000
vt 1.000000 0.000000
vt 0.000000 0.000000
vt 1.000000 0.000000
vt 0.000000 0.000000
vt 1.000000 0.000000
vt 0.000000 0.000000
vt 1.000000 0.000000
vt 0.000000 0.000000
vt 0.600000 0.125000
vt 0.333333 0.166667
vt 1.000000 1.000000
vt 1.000000 1.000000
vt 1.000000 1.000000
vt 1.000000 1.000000
vt 1.000000 1.000000
vt 0.700000 0.625000
vt 0.000000 1.000000
vt 0.000000 1.000000
vt 0.000000 1.000000
vt 0.000000 1.000000
vt 0.000000 1.000000
vt 0.300000 0.625000
vt 0.000000 0.000000
vt 1.000000 0.000000
vt 1.000000 1.000000
vt 0.000000 1.000000
vt 0.000000 0.000000
vt 0.000000 1.000000
vt 1.000000 1.000000
vt 1.000000 0.000000
vt 0.000000 1.000000
vt 0.000000 0.000000
vt 0.000000 0.250000
vt 0.200000 0.250000
vt 0.200000 0.500000
vt 0.000000 0.500000
vt 0.400000 0.250000
vt 0.400000 0.500000
vt 0.600000 0.250000
vt 0.600000 0.500000
vt 0.800000 0.250000
vt 0.800000 0.500000
vt 1.000000 0.250000
vt 1.000000 0.500000
vt 0.200000 0.750000
vt 0.000000 0.750000
vt 0.400000 0.750000
vt 0.600000 0.750000
vt 0.800000 0.750000
vt 1.000000 0.750000
vt 0.200000 0.500000
vt 0.000000 0.500000
vt 0.400000 0.500000
vt 0.600000 0.500000
vt 0.800000 0.253188
vt 0.800000 0.500000
vt 1.000000 0.500000
vt 0.200000 0.750000
vt 0.000000 0.750000
vt 0.400000 0.750000
vt 0.600000 0.750000
vt 0.800000 0.750000
vt 1.000000 0.750000
vt 0.306377 0.621812
vt 0.341835 0.175700
vt 0.785992 0.382004
vt 0.983375 0.857336
vt 0.800000 0.704835
vt 0.800000 0.659671
vt 0.800000 0.614506
vt 0.800000 0.569341
vt 0.800000 0.524176
vt 0.800000 0.479012
vt 0.800000 0.433847
vt 0.800000 0.388682
vt 0.800000 0.343518
vt 0.800000 0.298353
vt 0.742390 0.403805
vt 0.698789 0.425606
vt 0.655187 0.447406
vt 0.611586 0.469207
vt 0.567985 0.491008
vt 0.524383 0.512808
vt 0.480782 0.534609
vt 0.437181 0.556410
vt 0.393579 0.578210
vt 0.349978 0.600011
vt 0.925053 0.795369
vt 0.866731 0.733402
vt 0.808410 0.671435
vt 0.750088 0.609468
vt 0.691766 0.547501
vt 0.633444 0.485535
vt 0.575122 0.423568
vt 0.516801 0.361601
vt 0.458479 0.299634
vt 0.400157 0.237667
vn -0.718314 -0.163061 -0.676340
vn -0.710762 0.521611 -0.471953
vn 0.183841 0.806678 -0.561669
vn 0.164416 -0.206452 -0.964544
vn -0.801637 0.560336 0.208333
vn 0.066559 0.831755 0.551138
vn -0.872744 -0.160302 0.461109
vn -0.053265 -0.176923 0.982782
vn -0.796741 -0.591874 -0.122024
vn -0.122967 -0.991646 -0.038948
vn 0.844057 0.473946 -0.250884
vn 0.884210 -0.315130 -0.344768
vn 0.706998 0.459530 0.537574
vn 0.692105 -0.293333 0.659505
vn 0.746995 -0.644081 0.164797
vn -0.727876 -0.158285 -0.667190
vn -0.720662 0.512167 -0.467261
vn 0.060801 0.803587 -0.592074
vn 0.056603 -0.329583 -0.942428
vn -0.811200 0.550112 0.198322
vn -0.011088 0.821636 0.569905
vn -0.881735 -0.155395 0.445416
vn -0.063853 -0.297749 0.952506
vn -0.806256 -0.578207 -0.125011
vn -0.021549 -0.999594 0.018636
vn 0.844072 0.484246 -0.230324
vn 0.854816 -0.254028 -0.452503
vn 0.750421 0.471161 0.463547
vn 0.701956 -0.216086 0.678649
vn 0.744890 -0.652151 0.140850
vn -0.697477 -0.249999 -0.671585
vn -0.739177 0.447001 -0.503793
vn -0.053856 0.800309 -0.597164
vn 0.005681 -0.233378 -0.972370
vn -0.851591 0.477471 0.216364
vn -0.152691 0.827250 0.540688
vn -0.870226 -0.258434 0.419426
vn -0.173725 -0.196552 0.964980
vn -0.730355 -0.670892 -0.128396
vn 0.071281 -0.995376 0.064383
vn 0.853345 0.472756 -0.219782
vn 0.863920 -0.250204 -0.437082
vn 0.759975 0.460020 0.459151
vn 0.711652 -0.212926 0.669488
vn 0.754783 -0.640137 0.143272
vn 0.965450 -0.260588 0.000008
vn 0.965450 -0.260588 0.000008
vn 0.965450 -0.260588 0.000008
vn 0.965450 -0.260588 0.000008
vn -0.970313 0.132395 -0.202395
vn -0.970313 0.132395 -0.202395
vn -0.970313 0.132395 -0.202395
vn -0.970313 0.132395 -0.202395
vn 0.009254 0.318444 0.947897
vn 0.117356 -0.949193 0.291995
vn 0.062112 -0.968347 -0.241757
vn 0.004061 -0.182411 0.983214
vn -0.032224 -0.745730 -0.665468
vn -0.056456 -0.653338 0.754959
vn -0.003832 -0.266602 -0.963799
vn -0.176576 -0.931943 0.316706
vn 0.094258 0.373405 -0.922867
vn -0.235588 -0.927753 -0.289437
vn 0.136288 0.541414 -0.829636
vn -0.208887 -0.863163 -0.459691
vn -0.002932 -0.350569 -0.936533
vn -0.002139 0.249578 -0.968352
vn 0.054603 0.658924 -0.750225
vn 0.171224 0.938409 -0.300117
vn 0.244337 0.919834 0.306929
vn 0.225419 0.867517 0.443398
vn -0.117759 0.948525 -0.293997
vn -0.068090 0.979794 0.188060
vn 0.033088 0.766792 0.641042
vn 0.025151 0.352450 0.935492
vn -0.086180 -0.382135 0.920079
vn -0.118183 -0.533892 0.837253
vn 0.063761 -0.049697 -0.996727
vn 0.310803 0.599409 -0.737638
vn 0.314431 0.610320 -0.727078
vn 0.063761 -0.049697 -0.996727
vn 0.342325 0.660482 0.668265
vn 0.346013 0.672752 0.653972
vn -0.175251 -0.677214 0.714610
vn -0.204905 -0.738732 0.642097
vn -0.329399 -0.936769 0.118155
vn -0.329399 -0.936769 0.118155
vn 0.012290 0.999641 -0.023830
vn 0.012290 0.999640 -0.023830
vn 0.012290 0.999640 -0.023830
vn 0.012290 0.999640 -0.023830
vn 0.068490 0.077815 -0.994613
vn 0.068490 0.077815 -0.994613
vn 0.068490 0.077815 -0.994613
vn 0.068490 0.077815 -0.994613
vn -0.159216 -0.987221 -0.006620
vn -0.159216 -0.987222 -0.006620
vn -0.159216 -0.987221 -0.006620
vn -0.159216 -0.987222 -0.006620
vn -0.298024 0.125913 0.946217
vn -0.298024 0.125913 0.946217
vn -0.298024 0.125913 0.946217
vn -0.298024 0.125913 0.946217
vn -0.090350 0.881090 -0.464238
vn 0.006483 0.436103 0.899874
vn 0.019646 -0.655989 -0.754515
vn 0.092355 -0.857227 0.506590
vn -0.631348 0.438407 -0.639687
vn -0.605878 0.725178 -0.327152
vn 0.244049 0.798551 -0.550233
vn 0.120955 0.343514 -0.931326
vn -0.616243 0.698726 0.363354
vn 0.226616 0.753437 0.617234
vn -0.834106 0.014890 0.551404
vn -0.110273 -0.344672 0.932224
vn -0.866242 -0.349563 0.356975
vn -0.249379 -0.809187 0.532002
vn -0.854479 -0.318533 -0.410369
vn -0.854479 -0.318533 -0.410368
vn -0.246340 -0.760575 -0.600701
vn -0.234297 -0.764274 -0.600824
vn 0.930422 0.243668 -0.273755
vn 0.847342 -0.055622 -0.528127
vn 0.916027 0.230988 0.327933
vn 0.781885 -0.409493 0.470075
vn 0.757500 -0.609094 0.234941
vn 0.563334 -0.721985 -0.401737
vn 0.560604 -0.723270 -0.403241
vn -0.720450 0.405793 -0.562391
vn -0.680101 0.661560 -0.315914
vn 0.096612 0.828146 -0.552123
vn -0.204088 0.396343 -0.895132
vn -0.675094 0.661547 0.326503
vn 0.113258 0.781431 0.613627
vn -0.897305 0.077529 0.434550
vn -0.227734 -0.251694 0.940631
vn -0.951933 -0.212050 0.221039
vn -0.326414 -0.807852 0.490744
vn -0.918911 -0.280868 -0.276977
vn -0.918911 -0.280868 -0.276977
vn -0.076564 -0.834441 -0.545752
vn -0.216704 -0.810133 -0.544723
vn 0.909841 0.270762 -0.314448
vn 0.779222 0.033064 -0.625876
vn 0.899342 0.243807 0.362962
vn 0.701422 -0.436750 0.563256
vn 0.518459 -0.767115 0.377801
vn 0.529997 -0.736933 -0.419563
vn 0.529997 -0.736933 -0.419563
vn 0.955169 -0.285209 0.079419
vn 0.981635 0.038304 0.186885
vn 0.986193 -0.083719 -0.142878
vn 0.956058 -0.293177 0.001030
vn 0.934573 -0.285610 -0.212133
vn 0.971640 -0.233565 0.036921
vn -0.977911 -0.081125 -0.192636
vn -0.977911 -0.081125 -0.192636
vn -0.977911 -0.081125 -0.192636
vn -0.016069 0.999136 -0.038337
vn -0.025360 0.998921 -0.038905
vn 0.031474 0.998878 -0.035378
vn 0.031474 0.998878 -0.035378
vn 0.917282 -0.359728 0.170850
vn 0.917282 -0.359728 0.170850
vn 0.917282 -0.359728 0.170850
vn 0.021690 -0.729492 -0.683646
vn -0.007535 -0.702117 -0.712022
vn -0.031244 -0.678653 -0.733794
vn -0.031244 -0.678653 -0.733794
vn 0.005942 0.993188 -0.116371
vn 0.002757 0.993270 -0.115789
vn -0.268027 0.961429 -0.061775
vn -0.268027 0.961429 -0.061775
vn -0.067703 -0.413852 -0.907823
vn -0.090866 -0.418499 -0.903660
vn -0.946271 -0.307433 -0.100287
vn -0.067344 -0.428625 0.900969
vn -0.031130 -0.423889 0.905179
vn -0.965043 -0.233240 0.119549
vn 0.013046 -0.673649 0.738936
vn 0.030388 -0.689003 0.724121
vn -0.009993 -0.652479 0.757741
vn -0.009993 -0.652479 0.757741
vn -0.026061 -0.813457 -0.581041
vn 0.761874 -0.646467 0.040356
vn -0.002111 -0.821008 -0.570912
vn 0.971286 0.124891 0.202499
vn 0.971286 0.124891 0.202499
vn 0.069395 0.997587 0.002074
vn 0.057679 0.998335 -0.000397
vn -0.000077 -0.419377 0.907812
vn -0.000077 -0.419377 0.907812
vn 0.030128 0.992225 -0.120754
vn 0.030128 0.992225 -0.120754
vn -0.024302 -0.404529 -0.914202
vn -0.024302 -0.404529 -0.914202
vn 0.063214 -0.455728 0.887872
vn 0.063214 -0.455728 0.887872
vn 0.063214 -0.455728 0.887872
vn 0.063214 -0.455728 0.887872
vn -0.127290 0.987055 -0.097572
vn -0.127290 0.987055 -0.097572
vn -0.127290 0.987055 -0.097572
vn -0.127290 0.987055 -0.097572
vn 0.054595 -0.450538 -0.891087
vn 0.054595 -0.450538 -0.891087
vn 0.054595 -0.450538 -0.891086
vn 0.054595 -0.450538 -0.891087
vn -0.040142 -0.497724 0.866406
vn -0.040142 -0.497724 0.866406
vn -0.040142 -0.497724 0.866406
vn -0.040142 -0.497724 0.866406
vn 0.035344 0.995950 -0.082670
vn 0.035344 0.995950 -0.082670
vn 0.035344 0.995950 -0.082670
vn 0.035344 0.995950 -0.082670
vn 0.008012 -0.507332 -0.861713
vn 0.008012 -0.507332 -0.861713
vn 0.008012 -0.507332 -0.861713
vn 0.008012 -0.507332 -0.861713
vn -0.004988 -0.538905 0.842352
vn -0.004988 -0.538905 0.842352
vn -0.004988 -0.538905 0.842352
vn -0.004988 -0.538905 0.842352
vn 0.030984 0.997191 -0.068197
vn 0.030984 0.997191 -0.068197
vn 0.030984 0.997191 -0.068197
vn 0.030984 0.997191 -0.068197
vn -0.028240 -0.552409 -0.833095
vn -0.028240 -0.552409 -0.833095
vn -0.028240 -0.552409 -0.833095
vn -0.028240 -0.552409 -0.833095
vn 0.144146 -0.597964 0.788455
vn 0.144146 -0.597964 0.788455
vn 0.144146 -0.597964 0.788455
vn 0.144146 -0.597964 0.788455
vn -0.119038 0.990569 -0.067854
vn -0.119038 0.990569 -0.067854
vn -0.119038 0.990568 -0.067854
vn -0.119038 0.990568 -0.067854
vn -0.008060 -0.603174 -0.797569
vn -0.008060 -0.603174 -0.797569
vn -0.008060 -0.603174 -0.797569
vn -0.008060 -0.603174 -0.797569
vn -0.063769 -0.601090 0.796633
vn -0.063769 -0.601090 0.796633
vn -0.063769 -0.601090 0.796633
vn -0.063769 -0.601090 0.796633
vn 0.131389 0.990755 -0.033784
vn 0.131389 0.990755 -0.033784
vn 0.131389 0.990755 -0.033784
vn 0.131389 0.990755 -0.033784
vn -0.096061 -0.613300 -0.783987
vn -0.096061 -0.613300 -0.783987
vn -0.096061 -0.613300 -0.783987
vn -0.096061 -0.613300 -0.783987
vn -0.009771 -0.751373 -0.659805
vn 0.020370 -0.751852 -0.659017
vn -0.007174 0.999562 -0.028712
vn 0.004072 0.999644 -0.026379
vn 0.014235 -0.709177 0.704886
vn -0.018341 -0.707835 0.706140
vn -0.108612 -0.756323 -0.645119
vn -0.223837 -0.651830 -0.724578
vn -0.320253 -0.542614 -0.776536
vn -0.320253 -0.542614 -0.776536
vn 0.214904 0.976351 0.023540
vn 0.161603 0.986743 0.014924
vn 0.454079 0.888756 0.062652
vn 0.454079 0.888756 0.062652
vn -0.155744 -0.695743 0.701203
vn -0.090898 -0.741127 0.665183
vn -0.259307 -0.610109 0.748684
vn -0.259307 -0.610109 0.748684
vn -0.049446 -0.705848 0.706636
vn -0.049446 -0.705848 0.706636
vn 0.053090 0.998459 -0.016167
vn 0.053090 0.998459 -0.016167
vn -0.027697 -0.750764 -0.659990
vn -0.027697 -0.750764 -0.659990
vn -0.016057 -0.786069 0.617930
vn -0.016057 -0.786069 0.617930
s 1
g bow_complete
usemtl initialShadingGroup
f 1/1/1 2/2/2 7/8/3 6/7/4
f 2/2/2 3/3/5 8/9/6 7/8/3
f 3/3/5 4/4/7 9/10/8 8/9/6
f 4/4/7 5/5/9 10/11/10 9/10/8
f 5/5/9 1/6/1 6/12/4 10/11/10
f 6/7/4 7/8/3 12/14/11 11/13/12
f 7/8/3 8/9/6 13/15/13 12/14/11
f 8/9/6 9/10/8 14/16/14 13/15/13
f 9/10/8 10/11/10 15/17/15 14/16/14
f 10/11/10 6/12/4 11/18/12 15/17/15
s 2
f 16/19/16 17/20/17 22/21/18 21/22/19
f 17/20/17 18/23/20 23/24/21 22/21/18
f 18/23/20 19/25/22 24/26/23 23/24/21
f 19/25/22 20/27/24 25/28/25 24/26/23
f 20/27/24 16/29/16 21/30/19 25/28/25
f 21/22/19 22/21/18 2/31/26 1/32/27
f 22/21/18 23/24/21 3/33/28 2/31/26
f 23/24/21 24/26/23 4/34/29 3/33/28
f 24/26/23 25/28/25 5/35/30 4/34/29
f 25/28/25 21/30/19 1/36/27 5/35/30
s 3
f 26/37/31 27/38/32 32/39/33 31/40/34
f 27/38/32 28/41/35 33/42/36 32/39/33
f 28/41/35 29/43/37 34/44/38 33/42/36
f 29/43/37 30/45/39 35/46/40 34/44/38
f 30/45/39 26/47/31 31/48/34 35/46/40
f 31/40/34 32/39/33 17/49/41 16/50/42
f 32/39/33 33/42/36 18/51/43 17/49/41
f 33/42/36 34/44/38 19/52/44 18/51/43
f 34/44/38 35/46/40 20/53/45 19/52/44
f 35/46/40 31/48/34 16/54/42 20/53/45
s off
usemtl lambert9SG
f 60/55/46 61/56/47 62/57/48 63/58/49
f 64/59/50 65/60/51 66/61/52 67/62/53
s 4
f 36/63/54 42/64/55 43/65/56 37/66/57
f 37/66/57 43/65/56 44/67/58 38/68/59
f 38/68/59 44/67/58 45/69/60 39/70/61
f 39/70/61 45/69/60 46/71/62 40/72/63
f 40/72/63 46/71/62 71/73/64 68/74/65
f 42/64/55 48/75/66 49/76/67 43/65/56
f 43/65/56 49/76/67 50/77/68 44/67/58
f 44/67/58 50/77/68 51/78/69 45/69/60
f 45/69/60 51/78/69 52/79/70 46/71/62
f 46/71/62 52/79/70 70/80/71 71/73/64
f 48/75/66 54/81/72 55/82/73 49/76/67
f 49/76/67 55/82/73 56/83/74 50/77/68
f 50/77/68 56/83/74 57/84/75 51/78/69
f 51/78/69 57/84/75 58/85/76 52/79/70
f 52/79/70 58/85/76 69/86/77 70/80/71
f 54/81/72 36/63/54 37/66/57 55/82/73
f 55/82/73 37/66/57 38/68/59 56/83/74
f 56/83/74 38/68/59 39/70/61 57/84/75
f 57/84/75 39/70/61 40/72/63 58/85/76
f 58/85/76 40/72/63 68/74/65 69/86/77
s 6
f 41/87/78 47/88/79 61/56/80 60/55/81
f 47/88/79 53/89/82 62/57/83 61/56/80
f 53/89/82 59/90/84 63/58/85 62/57/83
f 59/90/84 41/87/86 60/55/87 63/58/85
s off
f 28/91/88 27/92/89 65/60/90 64/59/91
f 27/92/92 26/93/93 66/61/94 65/60/95
f 26/93/96 29/94/97 67/62/98 66/61/99
f 29/94/100 28/91/101 64/59/102 67/62/103
s 4
f 12/95/104 13/96/105 36/63/54 54/81/72
f 11/18/106 12/95/104 54/81/72 48/75/66
f 14/16/107 11/18/106 48/75/66 42/64/55
f 13/96/105 14/16/107 42/64/55 36/63/54
s 7
usemtl initialShadingGroup
f 72/97/108 73/98/109 78/99/110 77/100/111
f 73/98/109 74/101/112 79/102/113 78/99/110
f 74/101/112 75/103/114 80/104/115 79/102/113
f 75/103/114 76/105/116 81/106/117 80/104/115
s 8
f 76/105/118 72/107/119 77/108/120 81/106/121
s 7
f 77/100/111 78/99/110 83/109/122 82/110/123
f 78/99/110 79/102/113 84/111/124 83/109/122
f 79/102/113 80/104/115 85/112/125 84/111/124
f 80/104/115 81/106/117 86/113/126 85/112/125
s 8
f 81/106/121 77/108/120 82/114/127 86/113/128
s 9
f 68/74/129 71/73/130 89/115/131 88/116/132
f 71/73/130 70/80/133 90/117/134 89/115/131
f 70/80/133 69/86/135 91/118/136 90/117/134
f 69/86/135 87/119/137 92/120/138 91/118/136
s 10
f 87/119/139 68/74/140 88/121/141 92/120/142
s 9
f 88/116/132 89/115/131 73/122/143 72/123/144
f 89/115/131 90/117/134 74/124/145 73/122/143
f 90/117/134 91/118/136 75/125/146 74/124/145
f 91/118/136 92/120/138 76/126/147 75/125/146
s 10
f 92/120/142 88/121/141 72/127/148 76/126/149
s 7
f 59/90/150 53/89/151 84/111/124 85/112/125
f 53/89/151 47/88/152 83/109/122 84/111/124
f 41/87/153 59/90/150 85/112/125 86/113/126
f 47/88/152 41/87/154 82/110/123 83/109/122
s 8
f 82/110/127 41/87/155 86/113/128
s off
f 30/45/156 29/94/157 26/47/158
s 11
f 120/155/159 110/145/160 111/146/161 121/156/162
s off
f 14/16/163 15/17/164 95/130/165
s 12
f 100/135/166 120/155/167 121/156/168 101/136/169
s 13
f 94/129/170 93/128/171 69/86/172 68/74/173
s 14
f 87/119/174 94/129/175 68/74/176
s 15
f 93/128/177 87/119/178 69/86/179
s 16
f 110/145/180 100/135/181 101/136/182 111/146/183
s 17
f 15/17/184 11/18/185 96/131/186
s 18
f 11/18/187 14/16/188 95/130/189 96/131/190
s 15
f 116/151/191 106/141/192 87/119/178 93/128/177
s 13
f 126/161/193 116/151/194 93/128/171 94/129/170
s 14
f 106/141/195 126/161/196 94/129/175 87/119/174
s off
f 115/150/197 105/140/198 106/141/199 116/151/200
f 125/160/201 115/150/202 116/151/203 126/161/204
f 105/140/205 125/160/206 126/161/207 106/141/208
f 114/149/209 104/139/210 105/140/211 115/150/212
f 124/159/213 114/149/214 115/150/215 125/160/216
f 104/139/217 124/159/218 125/160/219 105/140/220
f 113/148/221 103/138/222 104/139/223 114/149/224
f 123/158/225 113/148/226 114/149/227 124/159/228
f 103/138/229 123/158/230 124/159/231 104/139/232
f 112/147/233 102/137/234 103/138/235 113/148/236
f 122/157/237 112/147/238 113/148/239 123/158/240
f 102/137/241 122/157/242 123/158/243 103/138/244
f 111/146/245 101/136/246 102/137/247 112/147/248
f 121/156/249 111/146/250 112/147/251 122/157/252
f 101/136/253 121/156/254 122/157/255 102/137/256
s 12
f 99/134/257 119/154/258 120/155/167 100/135/166
s 11
f 119/154/259 109/144/260 110/145/160 120/155/159
s 16
f 109/144/261 99/134/262 100/135/181 110/145/180
s 17
f 97/132/263 117/152/264 118/153/265 98/133/266
s 18
f 117/152/267 107/142/268 108/143/269 118/153/270
s 19
f 107/142/271 97/132/272 98/133/273 108/143/274
s 16
f 108/143/275 98/133/276 99/134/262 109/144/261
s 11
f 118/153/277 108/143/278 109/144/260 119/154/259
s 12
f 98/133/279 118/153/280 119/154/258 99/134/257
s 17
f 15/17/184 96/131/186 117/152/264 97/132/263
s 18
f 96/131/190 95/130/189 107/142/268 117/152/267
s 19
f 95/130/281 15/17/282 97/132/272 107/142/271
